<svg xmlns="http://www.w3.org/2000/svg" viewBox="0 0 750 500"><g id="freepik--background-complete--inject-2"><path d="M231.73,87.06a7.38,7.38,0,0,0,4.4-6.82,6.93,6.93,0,1,0-13.83-.06,7.34,7.34,0,0,0,4.4,6.88c-10.64,1.61-10.16,13.17-10.16,13.17l25.17.12S242.28,88.66,231.73,87.06Z" style="fill:#e0e0e0"></path><polygon points="640.28 147.91 628.61 135.34 632.39 131.83 640.45 140.5 657.38 123.84 661 127.52 640.28 147.91" style="fill:#f5f5f5"></polygon><path d="M471,216.56c0-8.59-9-14-18.22-9.72a10.46,10.46,0,0,0-4.84,4.64c-2.31,4.48-1.29,9.6.81,13.85l7.16,18.13a3.09,3.09,0,0,0,5.75,0l7-18.23C471.12,219.65,471,216.56,471,216.56ZM462.38,224c-6.18,3.59-12.45-3.05-9.06-9.61a5.17,5.17,0,0,1,2-2.08c6.19-3.6,12.45,3,9.06,9.61A5.17,5.17,0,0,1,462.38,224Z" style="fill:#ebebeb"></path><path d="M577.37,341.18c-19.27-17.6-20.37-45.5-16.18-69.87.7-4.07.83-8.44,3.29-11.75s7.39-5.14,10.86-2.91c2.88,1.85,3.74,5.57,5.06,8.73a24.45,24.45,0,0,0,8.46,10.49c2.45,1.71,5.6,3,8.4,1.92,3.84-1.45,4.92-6.26,5.45-10.33l3-22.75c.53-4.07,1.08-8.22,2.89-11.9s5.13-6.88,9.2-7.42,8.6,2.35,8.89,6.44c.11,1.7-.46,3.37-.58,5.08s.43,3.68,2,4.37,3.39-.22,4.78-1.24c4.81-3.52,8.42-8.41,11.84-13.3s6.76-9.91,11.23-13.86,10.29-6.76,16.23-6.28,11.74,4.94,12.45,10.86-3.47,11.28-7.79,15.42a92.1,92.1,0,0,1-21.61,15.37c-1.42.73-3,1.52-3.66,3-1.27,2.59,1,5.64,3.55,6.9,2.94,1.43,6.31,1.57,9.47,2.39s6.45,2.69,7.25,5.85c1.12,4.39-3,8.26-6.85,10.63a79.56,79.56,0,0,1-25.12,10.08c-3.18.68-6.5,1.2-9.23,3s-4.7,5.21-3.62,8.28,4.75,4.5,8,4.36,6.33-1.46,9.5-2.17c5.95-1.33,13.21.06,16.17,5.39,2,3.5,1.56,7.95-.17,11.56s-4.61,6.54-7.61,9.19c-10.51,9.26-23.28,16.12-37,18.81s-26.08,2.23-38.48-4.27" style="fill:#ebebeb"></path><path d="M578.9,351.1c2.23-9.57,1.67-12.53,7-24.36a367.55,367.55,0,0,1,20-37.2l5.75-9.48c1.9-3.11,3.77-6.19,5.8-9.09a184.66,184.66,0,0,1,12.61-16c4.27-4.9,8.49-9.39,12.48-13.57s7.79-8,11.4-11.32a147.42,147.42,0,0,1,18.2-14.46c2.28-1.53,4.08-2.67,5.31-3.42l1.41-.85c.32-.19.49-.27.49-.27s-.15.12-.45.32l-1.38.9c-1.21.79-3,2-5.24,3.52a155.43,155.43,0,0,0-18.05,14.58c-3.58,3.35-7.35,7.18-11.32,11.36s-8.17,8.69-12.41,13.59a183,183,0,0,0-12.55,16c-2,2.89-3.88,5.95-5.77,9.06l-5.75,9.48a373.2,373.2,0,0,0-20,37.11c-5.38,11.8-4.84,14.7-7.12,24.23" style="fill:#e0e0e0"></path><path d="M617.66,270.93a9.82,9.82,0,0,1-.13-1.79c-.06-1.15-.08-2.82-.09-4.88,0-4.13.15-9.83.35-16.11s.26-12,.15-16.09c0-2.06-.1-3.73-.16-4.88a8.79,8.79,0,0,1,0-1.79,10,10,0,0,1,.25,1.77c.14,1.15.26,2.82.36,4.88.22,4.12.22,9.83,0,16.13s-.39,11.86-.53,16.09c0,2-.08,3.62-.11,4.88A9.15,9.15,0,0,1,617.66,270.93Z" style="fill:#e0e0e0"></path><path d="M672,268.44a1.94,1.94,0,0,1-.56,0l-1.59-.08c-1.37-.08-3.36-.2-5.82-.26-4.92-.16-11.73-.14-19.23.21s-14.29,1-19.17,1.6c-2.45.28-4.42.57-5.79.76l-1.57.21c-.36,0-.55.06-.56,0a2.09,2.09,0,0,1,.54-.15l1.55-.33c1.36-.26,3.32-.61,5.77-.95,4.88-.72,11.67-1.42,19.2-1.79s14.34-.3,19.27,0c2.47.12,4.46.3,5.83.46l1.58.19A2,2,0,0,1,672,268.44Z" style="fill:#e0e0e0"></path><path d="M586.66,325.84a4.22,4.22,0,0,1-.27-.69c-.16-.53-.37-1.2-.63-2-.55-1.76-1.27-4.31-2.13-7.48-1.72-6.35-3.84-15.17-6-24.95s-4.25-18.61-5.86-25c-.8-3.12-1.46-5.67-1.94-7.53-.21-.83-.38-1.51-.52-2a3.72,3.72,0,0,1-.14-.73,3.12,3.12,0,0,1,.26.69l.63,2c.55,1.75,1.28,4.31,2.13,7.48,1.73,6.34,3.84,15.17,6,24.95s4.25,18.6,5.86,25c.81,3.12,1.46,5.68,1.94,7.53.22.84.39,1.52.52,2.05A3.2,3.2,0,0,1,586.66,325.84Z" style="fill:#e0e0e0"></path><path d="M660.07,313.13a3.31,3.31,0,0,1-.73.17l-2.14.38L649.33,315c-6.64,1.15-15.8,2.85-25.91,4.76s-19.28,3.53-25.95,4.57c-3.33.52-6,.92-7.9,1.16l-2.16.27a3.84,3.84,0,0,1-.75,0,3.61,3.61,0,0,1,.74-.18l2.13-.38,7.87-1.35c6.64-1.15,15.8-2.85,25.91-4.75s19.28-3.54,26-4.58c3.33-.52,6-.92,7.9-1.16l2.16-.26A2.51,2.51,0,0,1,660.07,313.13Z" style="fill:#e0e0e0"></path><path d="M58.28,218.46s6-6.78,19.53,8.18,19.66,24.07,19.66,24.07,3.34,3,5.19-.05,3.44-10.74,8-10.68c4.75.06,7.54,4.58,8.67,12s4.19,23.71,4.47,25.17,1.66,3.31,3.25,1.42,9.47-17.53,16.67-13.35,6.93,25.47,6.94,27.8.69,3.14,1.87,3.4,3.33-5.26,5.75-9.61,6-9,9.95-6.23,8.94,17.32,1.38,45.23l-4.35,12.7-13.19,2.82c-28.59,4.3-42.49-2.33-44.78-6.57s2.73-7.26,7.34-9.16,10.32-3.41,10.2-4.61-.84-2-3.16-2.25S98.2,316.33,94.88,308.7s13.12-13.66,15.17-15,.37-2.95-1-3.39-17.22-5.36-24.5-7.34-11.45-5.26-11-10c.47-4.56,8.28-5.25,11.54-6.74s.65-5.15.65-5.15S77.39,254,64.08,238.77s-5.67-20.44-5.67-20.44" style="fill:#ebebeb"></path><path d="M70.46,231.84s.1.08.26.26l.74.79c.65.74,1.58,1.77,2.77,3.1l10.16,11.44L118.06,285c13.18,14.66,25.06,28,33.57,37.7l10,11.55,2.71,3.16.69.83a2.59,2.59,0,0,1,.22.29s-.09-.08-.26-.26l-.73-.79-2.78-3.1L151.35,323c-8.58-9.66-20.49-22.94-33.68-37.6s-25-28-33.55-37.7l-10-11.54c-1.16-1.36-2.07-2.42-2.7-3.17l-.7-.83A2.59,2.59,0,0,1,70.46,231.84Z" style="fill:#e0e0e0"></path><path d="M108.89,250.81a26.18,26.18,0,0,1,.18,3.61c.07,2.37.17,5.37.27,8.7s.2,6.48.19,8.71c0,1.12,0,2-.07,2.65a3.08,3.08,0,0,1-.12,1,33.82,33.82,0,0,1-.18-3.6c-.09-2.37-.21-5.38-.34-8.7s-.15-6.49-.12-8.72c0-1.11,0-2,.08-2.64A4.13,4.13,0,0,1,108.89,250.81Z" style="fill:#e0e0e0"></path><path d="M108.21,276c0,.14-6.36.17-14.2.06s-14.21-.32-14.21-.47,6.37-.17,14.21-.06S108.22,275.85,108.21,276Z" style="fill:#e0e0e0"></path><path d="M132.68,300.76a3.39,3.39,0,0,1-.91.39c-.6.23-1.47.52-2.56.86-2.17.69-5.2,1.56-8.59,2.34s-6.5,1.35-8.75,1.69c-1.13.17-2,.28-2.68.35a3.26,3.26,0,0,1-1,.05,30.48,30.48,0,0,1,3.61-.77c2.23-.43,5.31-1,8.69-1.83s6.41-1.59,8.61-2.18A29.85,29.85,0,0,1,132.68,300.76Z" style="fill:#e0e0e0"></path><path d="M138.31,278.12a22.45,22.45,0,0,1-.69,3.34c-.48,2-1.19,4.86-2,8s-1.57,5.91-2.15,7.93a22,22,0,0,1-1,3.25,21.22,21.22,0,0,1,.68-3.34c.49-2,1.2-4.86,2-8s1.58-5.91,2.16-7.93A22,22,0,0,1,138.31,278.12Z" style="fill:#e0e0e0"></path><path d="M162.69,297.23a5.26,5.26,0,0,1-.21,1.16c-.21.84-.46,1.88-.76,3.1-.66,2.62-1.61,6.22-2.69,10.19s-2.09,7.55-2.85,10.14c-.36,1.21-.67,2.23-.91,3.06a5.24,5.24,0,0,1-.41,1.1,5.36,5.36,0,0,1,.21-1.16c.21-.84.46-1.87.76-3.1.66-2.61,1.61-6.21,2.69-10.18s2.09-7.56,2.84-10.14c.37-1.21.67-2.23.92-3.06A5.13,5.13,0,0,1,162.69,297.23Z" style="fill:#e0e0e0"></path><path d="M154.85,325.24a6.32,6.32,0,0,1-1.18.42c-.77.24-1.9.56-3.3.93-2.79.75-6.67,1.7-11,2.58s-8.26,1.53-11.13,1.93c-1.43.2-2.59.34-3.39.42a5.2,5.2,0,0,1-1.26.08,5.84,5.84,0,0,1,1.23-.28l3.37-.59c2.84-.49,6.76-1.19,11.08-2.07s8.19-1.77,11-2.42l3.33-.78A5.67,5.67,0,0,1,154.85,325.24Z" style="fill:#e0e0e0"></path></g><g id="freepik--Icons--inject-2"><path d="M105.89,241.63a3,3,0,0,0,1.41-.5,2.62,2.62,0,0,0,1-1.47,4.35,4.35,0,0,0,.09-1.17c0-.42,0-.87,0-1.35,0-3.86.09-9.4.15-16.23q0-2.57.06-5.37c0-.94,0-1.89,0-2.86a8.25,8.25,0,0,0,0-1.42,2.41,2.41,0,0,0-.63-1.2,2.22,2.22,0,0,0-1.2-.65,10.59,10.59,0,0,0-1.51,0H102.1l-6.62,0-29.46,0a2.39,2.39,0,0,0-2.33,2.2l-.06,3.82c0,2.55-.08,5-.12,7.52-.07,4.93-.14,9.68-.21,14.21l0,1.69a2.45,2.45,0,0,0,.36,1.46,2.24,2.24,0,0,0,1.12.94,3.94,3.94,0,0,0,1.52.16h6.24l11.21,0,16.22.08,4.41.05,1.15,0,.39,0a1.93,1.93,0,0,1-.39,0l-1.15,0-4.41,0-16.22.09-11.21,0H66.27a4.48,4.48,0,0,1-1.68-.17,2.79,2.79,0,0,1-1.36-1.13,2.93,2.93,0,0,1-.43-1.72c0-.56,0-1.12,0-1.69.06-4.53.12-9.28.18-14.21,0-2.46.07-5,.11-7.52,0-1.28,0-2.56.06-3.86A2.92,2.92,0,0,1,66,208.89l29.46,0h9.79a12.34,12.34,0,0,1,1.59.06,2.63,2.63,0,0,1,1.43.78,2.88,2.88,0,0,1,.74,1.41,8.61,8.61,0,0,1,0,1.51c0,1,0,1.93,0,2.86,0,1.87-.06,3.67-.09,5.38-.14,6.83-.24,12.36-.32,16.22,0,.48,0,.93,0,1.36a4.66,4.66,0,0,1-.12,1.2,2.8,2.8,0,0,1-1.1,1.52,2.49,2.49,0,0,1-1.08.4A1.15,1.15,0,0,1,105.89,241.63Z" style="fill:#455a64"></path><polygon points="87.66 222.63 93.12 225.94 87.54 229.22 81.96 232.49 82.08 225.9 82.2 219.31 87.66 222.63" style="fill:#455a64"></polygon><path d="M593.5,127a10.08,10.08,0,0,0,6-9.33c0-5.57-4.2-10.11-9.43-10.14s-9.48,4.48-9.5,10.05a10.07,10.07,0,0,0,6,9.42c-14.56,2.2-13.9,18-13.9,18l34.43.16S607.94,129.22,593.5,127Z" style="fill:#F07524"></path><rect x="335.26" y="93.96" width="56.09" height="37.81" transform="translate(-9.04 34.82) rotate(-5.42)" style="fill:#fff"></rect><path d="M393,129s0-.24-.09-.7l-.21-2c-.18-1.77-.44-4.32-.77-7.59-.65-6.54-1.58-15.92-2.7-27.34l.22.19L333.63,97l.23-.28h0V97l0,.32.06.62.12,1.26.24,2.49.46,4.93q.46,4.89.91,9.62c.59,6.3,1.16,12.36,1.7,18.09l-.26-.21,40.2-3.7,11.51-1,3.07-.27.8-.06H393l-.25,0-.77.08-3,.32-11.44,1.15-40.33,3.94-.24,0,0-.24c-.55-5.74-1.13-11.79-1.74-18.09q-.45-4.72-.91-9.62c-.16-1.63-.32-3.28-.47-4.93l-.24-2.49L333.46,98l-.06-.62,0-.32v-.29h0l.24-.29,55.84-5.25.21,0,0,.21c1,11.48,1.9,20.91,2.5,27.5.28,3.24.51,5.78.66,7.54.07.84.12,1.5.16,2S393,129,393,129Z" style="fill:#455a64"></path><path d="M389.44,91.4A3.07,3.07,0,0,1,389,92l-1.32,1.53c-1.19,1.36-2.86,3.26-4.92,5.59l-16.52,18.48-.15.16-.18-.12-1.49-.95-21.86-14L336,98.33l-1.78-1.19a4.3,4.3,0,0,1-.6-.44,3.79,3.79,0,0,1,.66.35l1.83,1.11,6.68,4.16,21.94,13.89,1.49,1-.34,0L382.5,98.84l5.05-5.48,1.38-1.47A5.37,5.37,0,0,1,389.44,91.4Z" style="fill:#455a64"></path><path d="M265.3,136.32a27,27,0,0,0-.57-3.62,14.08,14.08,0,0,0-1.67-3.92,14.63,14.63,0,0,0-3.76-4.17,14.66,14.66,0,0,0-13.91-2.07,14.8,14.8,0,0,0-6.8,5.11,14.58,14.58,0,0,0,0,17.32,14.73,14.73,0,0,0,6.8,5.12,14.73,14.73,0,0,0,17.67-6.24,14.08,14.08,0,0,0,1.67-3.92,27.32,27.32,0,0,0,.57-3.61.87.87,0,0,1,0,.24v.71a7.48,7.48,0,0,1-.09,1.15,10.81,10.81,0,0,1-.28,1.56,14.31,14.31,0,0,1-1.61,4,15,15,0,0,1-18.09,6.54,14,14,0,0,1-3.84-2,14.17,14.17,0,0,1-3.21-3.21,15.06,15.06,0,0,1,0-17.93,14.17,14.17,0,0,1,3.21-3.21,14,14,0,0,1,3.84-2,15,15,0,0,1,14.29,2.23,14.85,14.85,0,0,1,3.79,4.31,14.07,14.07,0,0,1,1.62,4,10.81,10.81,0,0,1,.28,1.56,7.48,7.48,0,0,1,.09,1.15v.71A1,1,0,0,1,265.3,136.32Z" style="fill:#263238"></path><path d="M285.33,161.2c-.08.12-5.36-3.28-11.78-7.59s-11.57-7.91-11.49-8,5.35,3.28,11.78,7.6S285.41,161.08,285.33,161.2Z" style="fill:#263238"></path><polygon points="329.53 188.7 317.85 176.13 321.63 172.62 329.7 181.29 346.63 164.63 350.25 168.31 329.53 188.7" style="fill:#F07524"></polygon></g><g id="freepik--speech-bubbles--inject-2"><path d="M657.21,176.67h.56l.7,0,1,.13a12.84,12.84,0,0,1,5.85,2.56,13.13,13.13,0,0,1,4.91,8.75c.1,1,.1,2.05.1,3.11s0,2.17,0,3.31c0,2.27,0,4.68,0,7.2s0,5.19,0,8c0,1.38,0,2.8,0,4.24a15.3,15.3,0,0,1-.44,4.43,13.13,13.13,0,0,1-9.87,9.5,23.06,23.06,0,0,1-5,.31l-44.64,0,.18-.07-10.07,10.07-.45.45V228l.26.26a23.06,23.06,0,0,1-3.31-.12,13.19,13.19,0,0,1-3.21-.83,13.17,13.17,0,0,1-8-9.64,17,17,0,0,1-.26-3.17v-3.11c0-4.12,0-8.18,0-12.14v-5.88a46.23,46.23,0,0,1,.18-5.77,13.28,13.28,0,0,1,2.06-5.27,13.22,13.22,0,0,1,8.95-5.68,40.74,40.74,0,0,1,5.15-.16l18.64,0,26.92.09,7.3,0,1.89,0,.65,0-.65,0-1.89,0-7.3,0-26.92.09-18.64,0a39.21,39.21,0,0,0-5.08.17,12.65,12.65,0,0,0-10.61,10.58,44.64,44.64,0,0,0-.16,5.7v5.88c0,4,0,8,0,12.14a37.33,37.33,0,0,0,.25,6.18,13.14,13.14,0,0,0,2.66,5.57,12.66,12.66,0,0,0,8.14,4.49,23.13,23.13,0,0,0,3.24.11h.26V238l-.44-.19,10.08-10.07.07-.07h.11l44.64,0a22.42,22.42,0,0,0,4.95-.3,12.63,12.63,0,0,0,4.39-1.87,12.76,12.76,0,0,0,5.19-7.3A15,15,0,0,0,670,214c0-1.44,0-2.86,0-4.24,0-2.77,0-5.43,0-8s0-4.93,0-7.2c0-1.14,0-2.24,0-3.31s0-2.1-.07-3.08a12.93,12.93,0,0,0-4.77-8.63,12.76,12.76,0,0,0-5.75-2.61l-.95-.16-.69,0Z" style="fill:#263238"></path><path d="M617.55,204s-.06-.25-.19-.68a2.87,2.87,0,0,0-1.06-1.46,2.7,2.7,0,0,0-2.52-.33,2.63,2.63,0,0,0,0,4.94,2.7,2.7,0,0,0,2.52-.33,2.87,2.87,0,0,0,1.06-1.46c.13-.42.14-.68.19-.68a1.39,1.39,0,0,1,0,.73,2.76,2.76,0,0,1-1,1.7,3,3,0,0,1-2.91.5,3.1,3.1,0,0,1,0-5.85,3,3,0,0,1,2.91.49,2.77,2.77,0,0,1,1,1.71A1.36,1.36,0,0,1,617.55,204Z" style="fill:#263238"></path><path d="M630.8,203.9a5.72,5.72,0,0,1-.18-.67,2.91,2.91,0,0,0-1.06-1.47,2.71,2.71,0,0,0-2.53-.33,2.65,2.65,0,0,0,0,4.95,2.74,2.74,0,0,0,2.53-.34,2.93,2.93,0,0,0,1.06-1.46,6.38,6.38,0,0,1,.18-.68s.09.26,0,.73a2.85,2.85,0,0,1-1,1.7,3,3,0,0,1-2.91.5,3.1,3.1,0,0,1,0-5.85,3,3,0,0,1,2.91.49,2.87,2.87,0,0,1,1,1.71C630.89,203.64,630.83,203.9,630.8,203.9Z" style="fill:#263238"></path><path d="M644.06,203.9a6.9,6.9,0,0,1-.19-.67,2.88,2.88,0,0,0-1-1.47,2.71,2.71,0,0,0-2.53-.33,2.65,2.65,0,0,0,0,4.95,2.74,2.74,0,0,0,2.53-.34,2.9,2.9,0,0,0,1-1.46c.14-.42.15-.68.19-.68s.09.26,0,.73a2.85,2.85,0,0,1-1,1.7,3,3,0,0,1-2.91.5,3.1,3.1,0,0,1,0-5.85,3,3,0,0,1,2.91.49,2.87,2.87,0,0,1,1,1.71C644.15,203.64,644.09,203.9,644.06,203.9Z" style="fill:#263238"></path><path d="M155.45,135.24c0-8.58-9-14-18.21-9.72a10.47,10.47,0,0,0-4.84,4.64c-2.32,4.48-1.29,9.6.8,13.85l7.16,18.14a3.09,3.09,0,0,0,5.75,0l7-18.24C155.56,138.34,155.45,135.24,155.45,135.24Zm-8.64,7.48c-6.18,3.59-12.44-3.05-9.06-9.61a5.07,5.07,0,0,1,2-2.08c6.18-3.6,12.45,3.05,9.06,9.6A5.09,5.09,0,0,1,146.81,142.72Z" style="fill:#F07524"></path><path d="M187.24,164.88h0s0,.11.13.33.18.55.33,1l1.24,3.78c1.09,3.33,2.68,8.22,4.72,14.49l.06.2-.2,0-20.16-3.69-.13,0v-.14h0l.27.13A50.38,50.38,0,0,1,143,191a55.56,55.56,0,0,1-7.43-.62,53.93,53.93,0,0,1-7.53-1.69l-3.73-1.36a13.48,13.48,0,0,1-1.84-.8l-1.82-.87a51.82,51.82,0,0,1-13.46-9.76,49.65,49.65,0,0,1-9.89-14.4,50.39,50.39,0,0,1,47.81-71.4,50.26,50.26,0,0,1,48.37,47.2,47.71,47.71,0,0,1-1.37,15.38,48.69,48.69,0,0,1-3.32,9.2c-.49,1-.88,1.77-1.16,2.25l-.43.76.38-.76c.27-.53.65-1.29,1.12-2.3a50.12,50.12,0,0,0,3.22-9.2,47.89,47.89,0,0,0,1.27-15.31,50,50,0,0,0-21.52-38,50.25,50.25,0,0,0-56.25-.41A50,50,0,0,0,97.8,161.28a49.36,49.36,0,0,0,9.78,14.27,51.43,51.43,0,0,0,13.32,9.67l1.81.87a12.26,12.26,0,0,0,1.82.8l3.68,1.35a53.13,53.13,0,0,0,7.47,1.69,56.25,56.25,0,0,0,7.36.63,50,50,0,0,0,30.25-9.94l.27-.2v.34h0l-.13-.17,20.13,3.78-.14.16L188.82,170l-1.19-3.8c-.13-.42-.22-.75-.29-1s-.1-.34-.1-.34Z" style="fill:#263238"></path><path d="M511.45,122.91a7.35,7.35,0,0,1-.2-1.77A15.15,15.15,0,0,0,511,119a20.72,20.72,0,0,0-.56-2.86,26.69,26.69,0,0,0-3-7.38,27.57,27.57,0,0,0-6.86-7.9,27.17,27.17,0,0,0-11.41-5.32,27.46,27.46,0,0,0-14.35.89,25.54,25.54,0,0,0-7,3.56,25.06,25.06,0,0,0-5.88,5.64,27.1,27.1,0,0,0-.78,32.14A30.06,30.06,0,0,0,463.8,141a30.79,30.79,0,0,0,3,2.71,25.67,25.67,0,0,0,6.79,3.89,27.49,27.49,0,0,0,14.28,1.59,27.21,27.21,0,0,0,11.66-4.77,27.54,27.54,0,0,0,7.24-7.55,27,27,0,0,0,3.33-7.23,21.08,21.08,0,0,0,.7-2.83,14.05,14.05,0,0,0,.34-2.12,7.59,7.59,0,0,1,.29-1.77,7.91,7.91,0,0,1,0,1.79,13.5,13.5,0,0,1-.2,2.17,20.39,20.39,0,0,1-.57,2.92,26.54,26.54,0,0,1-3.18,7.52,28.42,28.42,0,0,1-19.42,13.13,28.76,28.76,0,0,1-15-1.53,27.21,27.21,0,0,1-7.17-4,32.83,32.83,0,0,1-3.2-2.84,33.52,33.52,0,0,1-2.74-3.39,28.47,28.47,0,0,1,.83-33.92,31,31,0,0,1,2.9-3.25A30,30,0,0,1,467,98.79a26.65,26.65,0,0,1,7.36-3.7,28.54,28.54,0,0,1,15.06-.8,28.33,28.33,0,0,1,18.76,14A26.33,26.33,0,0,1,511,116a19.08,19.08,0,0,1,.43,3,13.3,13.3,0,0,1,.1,2.17A8,8,0,0,1,511.45,122.91Z" style="fill:#455a64"></path><path d="M505.86,105.45c.06.09-.45.53-1.42,1.25l-1.8,1.29c-.35.24-.73.52-1.14.78l-1.38.72a31.54,31.54,0,0,1-16.43,4.14l-2.49-.11-2.38-.38c-.39-.06-.78-.11-1.16-.19l-1.12-.3c-.73-.2-1.46-.37-2.15-.59a36.21,36.21,0,0,1-7-3.22c-3.74-2.26-5.57-4.32-5.43-4.45s2.19,1.55,6,3.51a42.23,42.23,0,0,0,6.87,2.8c.66.2,1.36.35,2.07.53l1.07.26,1.11.17,2.28.34,2.37.09a34,34,0,0,0,15.91-3.57l1.4-.61c.42-.22.81-.45,1.18-.66l1.9-1C505.17,105.64,505.79,105.37,505.86,105.45Z" style="fill:#455a64"></path><path d="M461.14,139.43c-.06-.08.45-.52,1.42-1.25l1.8-1.29c.35-.24.73-.52,1.14-.78l1.38-.72a31.54,31.54,0,0,1,16.43-4.13l2.49.11,2.38.37c.39.07.78.12,1.16.2l1.12.29c.73.21,1.46.38,2.15.6a35.63,35.63,0,0,1,7,3.21c3.74,2.27,5.57,4.33,5.43,4.46s-2.19-1.55-6-3.51a41.32,41.32,0,0,0-6.87-2.81c-.67-.19-1.37-.34-2.07-.52l-1.07-.27-1.11-.17-2.28-.33-2.37-.1a34,34,0,0,0-15.92,3.58L466,137c-.42.22-.81.46-1.18.66l-1.9,1.06C461.83,139.25,461.2,139.52,461.14,139.43Z" style="fill:#455a64"></path><path d="M511.43,123.56c0,.43-12.53.47-28,.09s-27.93-1-27.92-1.45,12.52-.46,28-.08S511.44,123.14,511.43,123.56Z" style="fill:#455a64"></path><path d="M482.2,150.15c-.42,0-.46-12.52-.09-27.95s1-27.93,1.45-27.92.46,12.53.09,28S482.62,150.16,482.2,150.15Z" style="fill:#455a64"></path><path d="M482.2,150.11c-.1.16-3.18-1.93-6.74-6.65a37.72,37.72,0,0,1-5-9.07,33.55,33.55,0,0,1-2.16-12.52,32,32,0,0,1,2.82-12.4,38.19,38.19,0,0,1,5.46-8.79c3.76-4.55,6.86-6.56,7-6.4s-2.66,2.46-6.12,7.07a41.48,41.48,0,0,0-5,8.68,32.12,32.12,0,0,0-2.59,11.86,34.05,34.05,0,0,0,2,12,40.33,40.33,0,0,0,4.55,8.93C479.58,147.59,482.36,149.94,482.2,150.11Z" style="fill:#455a64"></path><path d="M484.18,94.29c.11-.16,3.19,1.93,6.74,6.65a37.72,37.72,0,0,1,5,9.07,34,34,0,0,1,2.16,12.53,32.13,32.13,0,0,1-2.82,12.39,38.88,38.88,0,0,1-5.46,8.79c-3.76,4.55-6.87,6.57-7,6.4s2.66-2.46,6.11-7.07a41.49,41.49,0,0,0,5-8.68,32.32,32.32,0,0,0,2.58-11.86,34.05,34.05,0,0,0-2-12,40.55,40.55,0,0,0-4.56-8.93C486.8,96.81,484,94.46,484.18,94.29Z" style="fill:#455a64"></path><path d="M455.57,163.86h0l-.34.09-1,.24-3.88.91-14.86,3.4-.2.05.06-.2,5.46-19.74,0-.14H441l-.16.26a50.19,50.19,0,0,1-7.51-24.08,52.23,52.23,0,0,1,.16-7.16,56.17,56.17,0,0,1,1.28-7.34,53.55,53.55,0,0,1,2.35-7.35c.56-1.19,1.12-2.39,1.69-3.59a13,13,0,0,1,1-1.76c.34-.58.68-1.16,1-1.74a52.07,52.07,0,0,1,10.91-12.54,49.66,49.66,0,0,1,15.22-8.57,50.39,50.39,0,0,1,66.87,54,50.26,50.26,0,0,1-51.31,44,47.8,47.8,0,0,1-15.2-2.73,49.3,49.3,0,0,1-8.86-4.12c-1-.58-1.69-1-2.14-1.36l-.72-.5.72.45c.5.31,1.23.76,2.19,1.32a51,51,0,0,0,8.88,4,48,48,0,0,0,15.14,2.63,50.1,50.1,0,0,0,45.13-74A50,50,0,0,0,467.1,75.1,49.47,49.47,0,0,0,452,83.57,51.53,51.53,0,0,0,441.2,96c-.34.57-.68,1.15-1,1.72a14.67,14.67,0,0,0-.95,1.74L437.55,103a51.83,51.83,0,0,0-2.34,7.29,55.5,55.5,0,0,0-1.29,7.27,51.5,51.5,0,0,0-.17,7.11,49.85,49.85,0,0,0,7.38,23.91l.18.29-.34,0h0l.18-.12c-2.15,7.61-4,14.27-5.56,19.72l-.14-.16L450.33,165l3.89-.84,1-.21a3,3,0,0,1,.35-.06h0Z" style="fill:#263238"></path></g><g id="freepik--character-3--inject-2"><path d="M497.7,187.9c-4.89,1.14-8,6.09-9.07,11s-.53,10-1,15-2.22,10.31-6.43,13l4.19,1.22a11.43,11.43,0,0,1-4.92,6.3,9.33,9.33,0,0,0,5.72,1.95c-2.46.65-3.14,4.17-1.78,6.32s3.95,3.17,6.42,3.8a16.83,16.83,0,0,0,8.9.27c4-1.21,7.08-4.77,8.63-8.71s1.84-8.24,2-12.47c.3-10.59-.32-21.29-3-31.54-.66-2.48-1.56-5.11-3.67-6.57s-5.71-.87-6.35,1.61" style="fill:#F07524"></path><path d="M608.23,340.76c-1.16-4.42-7.92-29.32-14-45.58-6.71-18.05-20.55-21.78-20.55-21.78-31.15-10.63-59.14-10.69-89-.33-1,.3-1.89.62-2.78,1l-.09,0h0c-22.17,8.7-24.46,32.12-24.46,32.12L448,363a12.83,12.83,0,0,0-.22,1.36l-.09.54h0a13.3,13.3,0,0,0,7.62,12.83c13,6,25.44,4.57,36.12.16l-7.76,11.3h92.39L570,374.28l2-9,14.31,17.22a13.31,13.31,0,0,0,6.59,4.29c16.5,1.92,19.17-22.65,16.07-36.95h0" style="fill:#455a64"></path><path d="M549.7,267.21s-14.91,75-20.16,74.42-29.88-73-29.88-73S531.14,260.23,549.7,267.21Z" style="fill:#ffbe9d"></path><path d="M507.42,272.74c-.08-8.63-.32-17.72-.32-17.72s-11.13-1.77-13.53-16.27c-2.28-13.82-.19-45.79-.19-45.79h0a41.7,41.7,0,0,1,46.44,10.35h0l-.51,70.12c-.06,8.14-7.11,14.57-15.82,14.44h0C514.68,287.74,507.49,281,507.42,272.74Z" style="fill:#ffbe9d"></path><path d="M497.07,217.15a1.86,1.86,0,0,0,1.8,1.87,1.78,1.78,0,0,0,1.91-1.69,1.86,1.86,0,0,0-1.8-1.87A1.78,1.78,0,0,0,497.07,217.15Z" style="fill:#263238"></path><path d="M494.62,215.83c.23.24,1.63-.81,3.63-.82s3.48,1,3.7.74-.14-.54-.78-1a5.12,5.12,0,0,0-3-.89,5,5,0,0,0-2.89,1C494.71,215.28,494.5,215.72,494.62,215.83Z" style="fill:#263238"></path><path d="M517.32,218.12a1.86,1.86,0,0,0,1.8,1.87A1.78,1.78,0,0,0,521,218.3a1.86,1.86,0,0,0-1.8-1.87A1.78,1.78,0,0,0,517.32,218.12Z" style="fill:#263238"></path><path d="M515.51,216.43c.24.24,1.64-.81,3.64-.82s3.48,1,3.69.74-.13-.54-.77-1a5.12,5.12,0,0,0-3-.89,4.88,4.88,0,0,0-2.89,1C515.61,215.88,515.4,216.32,515.51,216.43Z" style="fill:#263238"></path><path d="M508.34,231.32a13.42,13.42,0,0,0-3.26-.56c-.51,0-1-.15-1.08-.5a2.58,2.58,0,0,1,.33-1.52l1.49-3.9c2.06-5.56,3.56-10.12,3.33-10.21s-2.08,4.36-4.15,9.92c-.49,1.37-1,2.67-1.42,3.92a2.94,2.94,0,0,0-.25,2,1.26,1.26,0,0,0,.84.74,3.75,3.75,0,0,0,.87.12A13,13,0,0,0,508.34,231.32Z" style="fill:#263238"></path><path d="M507.1,255a36.93,36.93,0,0,0,19.4-5.3s-4.66,10-19.19,8.73Z" style="fill:#eb996e"></path><path d="M509.21,236.14a3.66,3.66,0,0,1,3.23-1.36,3.31,3.31,0,0,1,2.28,1.21,2.09,2.09,0,0,1,.17,2.39,2.41,2.41,0,0,1-2.62.67,7.5,7.5,0,0,1-2.56-1.51,2.17,2.17,0,0,1-.58-.59.65.65,0,0,1,0-.74" style="fill:#eb996e"></path><path d="M514.24,232.67c-.33,0-.32,2.16-2.17,3.71s-4.17,1.33-4.18,1.63c0,.14.52.42,1.5.44a5.41,5.41,0,0,0,3.49-1.24,4.63,4.63,0,0,0,1.67-3.11C514.63,233.2,514.39,232.66,514.24,232.67Z" style="fill:#263238"></path><path d="M532,191.62c-5.17,7.66-19.09,15.7-29.12,17.68,1.15-1.57,7.27-5.49,8.41-7.05-4.5,3.48-11,8.15-17,8.57a3.67,3.67,0,0,1-2.09-.29,2.81,2.81,0,0,1-1.1-2.26,60.86,60.86,0,0,1,.19-13.15,14.54,14.54,0,0,1,5.07-9.47c3.83-3.07,9.36-3.9,14.59-4.12,4.38-.18,8.9,0,12.94,1.51s7.52,4.58,8.17,8.32" style="fill:#F07524"></path><path d="M549.15,226.71a80.48,80.48,0,0,0,1.28-9.72c.3-7.5,2.54-34.54-23.23-31.86l1.46,7.27s-4.81,16.84,6.26,28.2c0,0-3.15,23.72,4.55,31.38,0,0,8.26-17.18,9.68-25.27" style="fill:#F07524"></path><path d="M534.59,219.34a8.71,8.71,0,0,1,4.67.27,6.05,6.05,0,0,1,3.44,3.09,6.28,6.28,0,0,1,.07,4.63,10.69,10.69,0,0,1-2.62,3.92,7.32,7.32,0,0,1-2.81,1.89,3.5,3.5,0,0,1-3.23-.48" style="fill:#ffbe9d"></path><path d="M535.5,228.74c-.17.06.51,1,1.92.61a3.07,3.07,0,0,0,1.75-1.54,6.87,6.87,0,0,0,.75-2.58,4,4,0,0,0-.67-2.73,2.67,2.67,0,0,0-2-1.19c-1.46,0-1.91,1-1.74,1s.68-.41,1.63-.19a2.61,2.61,0,0,1,1.64,3c-.16,1.6-.77,3.06-1.62,3.43S535.6,228.61,535.5,228.74Z" style="fill:#eb996e"></path><path d="M483.75,342.59c-.14,0-.26-5.89-.26-13.16s.12-13.15.26-13.15.26,5.89.26,13.15S483.89,342.59,483.75,342.59Z" style="fill:#263238"></path><path d="M521.3,315.73s-13,.15-13.79,3c-1.36,4.76,1.07,30.89,1.07,30.89l11.95,4s5.76-1.33,3.1-12.42a80.93,80.93,0,0,0-7.9-19.94s15.88.44,15.44-3.11S521.3,315.73,521.3,315.73Z" style="fill:#ffbe9d"></path><path d="M516.14,323.44c.71-.14,16.58-1.45,15.59,1.09s-15.59,3.17-15.59,3.17Z" style="fill:#ffbe9d"></path><polygon points="567.13 285.02 565.17 334.58 557.93 353.61 513.45 354.53 511.65 293.14 567.13 285.02" style="fill:#263238"></polygon><path d="M506.48,333.2a2.53,2.53,0,0,1-.54.28l-1.6.72-5.93,2.53-19.62,8.19L468,349.37a63.71,63.71,0,0,0-8.64,4,16.86,16.86,0,0,0-4.84,4.12c-.92,1.2-1.25,2-1.3,2a2.17,2.17,0,0,1,.24-.57,8.68,8.68,0,0,1,.9-1.51,16.06,16.06,0,0,1,4.8-4.31,59.87,59.87,0,0,1,8.66-4.11l10.81-4.48,19.68-8.05,6-2.38,1.64-.62A2.4,2.4,0,0,1,506.48,333.2Z" style="fill:#263238"></path><path d="M521.19,352.62a8.34,8.34,0,0,1-1,1.19c-.65.75-1.62,1.8-2.87,3.05-2.49,2.52-6.09,5.84-10.23,9.3s-8,6.44-10.88,8.52c-1.43,1-2.6,1.86-3.42,2.42a8.69,8.69,0,0,1-1.3.81,8.34,8.34,0,0,1,1.18-1l3.32-2.55c2.8-2.15,6.63-5.16,10.77-8.62s7.76-6.71,10.3-9.16c1.28-1.21,2.29-2.23,3-2.92A8.9,8.9,0,0,1,521.19,352.62Z" style="fill:#263238"></path><path d="M588.18,384.34c-.11.1-6.63-7.38-14.57-16.7s-14.29-16.94-14.18-17S566.06,358,574,367.3,588.29,384.25,588.18,384.34Z" style="fill:#263238"></path><path d="M600.75,348.33a9.34,9.34,0,0,1-1.44-.51c-.92-.36-2.24-.92-3.85-1.64-3.22-1.45-7.6-3.61-12.26-6.31s-8.73-5.41-11.59-7.48c-1.43-1-2.57-1.9-3.34-2.52a8.34,8.34,0,0,1-1.16-1,8.47,8.47,0,0,1,1.28.83c.89.61,2.05,1.41,3.43,2.38,2.91,2,7,4.64,11.64,7.33s9,4.9,12.16,6.42l3.77,1.79A8.59,8.59,0,0,1,600.75,348.33Z" style="fill:#263238"></path><path d="M577.73,337.45c-.14,0-.92-5.27-1.74-11.81s-1.37-11.87-1.23-11.88.93,5.27,1.75,11.81S577.88,337.44,577.73,337.45Z" style="fill:#263238"></path><path d="M540.11,228.65a3.71,3.71,0,0,1-.41.63l-1.27,1.7-4.61,6,0-.32,7.51,5.9.67.54-.36,0,6.5-8.14,0,.3-4.89-4-1.34-1.13a2.71,2.71,0,0,1-.45-.44s.2.1.53.34l1.41,1,5,3.84.17.13-.14.17c-1.85,2.38-4.05,5.18-6.42,8.2l-.16.21-.21-.16L541,243c-2.71-2.16-5.26-4.2-7.47-5.95l-.18-.15.14-.17,4.76-5.86,1.36-1.63C539.91,228.82,540.09,228.63,540.11,228.65Z" style="fill:#263238"></path><path d="M559.19,349.86a177.76,177.76,0,0,1-21.48-2.3c-8.41-1.34-8.32-2.11-8-3.07.8-2.58,14.88,1.8,12.35-.91s-17.78-3.35-16.83-6c1.24-3.47,15.9,1.39,17.17,1.71s1.72-1.51.56-1.74c-1.66-.33-19.09-4.18-17.91-7.6.66-1.9,3.94-.31,3.94-.31s16.07,4.82,16.58,3.18-8.83-4.81-12.06-5.64-4.12-2.69-2.62-3.81c1-.76,11,1.57,14.11,2.48s11.82,3.53,8.52-1.25l-.14-.23c-3.38-4.62-4.45-9.3-3.84-10.87a2,2,0,0,1,3.56,0,2.07,2.07,0,0,1,.33.77,3.71,3.71,0,0,0,.12.41,28.47,28.47,0,0,0,2.92,5.09,15.52,15.52,0,0,0,3.64,3.77c1.64,1.19,5.79,5.57,7,6.35" style="fill:#ffbe9d"></path></g><g id="freepik--character-2--inject-2"><path d="M261.59,290.91h0a17.55,17.55,0,0,1-17.22-17c-.24-7.79-.42-15.3-.42-15.3s-14.31-1.33-15.36-15.49-.6-46.85-.6-46.85h0a49.36,49.36,0,0,1,49.88,3.17l2.2,1.49-.61,72.6A17.55,17.55,0,0,1,261.59,290.91Z" style="fill:#b78876"></path><path d="M243.6,234.38c0-.16-1.22-.33-3.2-.48-.52,0-.92-.11-1-.38a2.84,2.84,0,0,1,.28-1.49L241,228c1.78-5.78,3-10.54,2.69-10.63s-2,4.52-3.76,10.3c-.42,1.41-.82,2.76-1.21,4.09a3.24,3.24,0,0,0-.15,2.14,1.36,1.36,0,0,0,.93.76,3.51,3.51,0,0,0,.88.06C242.36,234.64,243.59,234.53,243.6,234.38Z" style="fill:#263238"></path><path d="M250.07,236.14a47.19,47.19,0,0,1-9.4,3.37,5.41,5.41,0,0,0,6.5,1.76C251.31,239.45,250.07,236.14,250.07,236.14Z" style="fill:#fff"></path><path d="M243.92,258.39A33,33,0,0,0,262.07,252s-3.74,10.47-18,10.06Z" style="fill:#a36957"></path><path d="M279.28,218.42a2.14,2.14,0,0,1,2-2.15c2.65-.07,7,1,7.38,8.27.58,10.43-9.45,7.83-9.48,7.53S279.25,222.47,279.28,218.42Z" style="fill:#b78876"></path><path d="M281.52,228s.18.12.5.24a1.83,1.83,0,0,0,1.36,0c1.08-.47,1.91-2.27,1.85-4.15a5.88,5.88,0,0,0-.65-2.57,2.09,2.09,0,0,0-1.44-1.32.93.93,0,0,0-1.05.56c-.12.3,0,.5-.1.52s-.23-.16-.17-.6a1.17,1.17,0,0,1,.37-.67,1.36,1.36,0,0,1,1-.32,2.56,2.56,0,0,1,2,1.51A6.16,6.16,0,0,1,286,224c.05,2.1-.92,4.13-2.4,4.65a1.93,1.93,0,0,1-1.67-.19C281.55,228.22,281.48,228,281.52,228Z" style="fill:#a36957"></path><path d="M232.43,220.26a1.93,1.93,0,0,0,2,1.8,1.83,1.83,0,0,0,1.85-1.87,1.92,1.92,0,0,0-2-1.81A1.84,1.84,0,0,0,232.43,220.26Z" style="fill:#263238"></path><path d="M229.16,218.33c.26.23,1.64-1,3.7-1.09s3.66.78,3.86.52-.17-.56-.86-1a5.31,5.31,0,0,0-3.12-.72,5,5,0,0,0-2.92,1.17C229.22,217.76,229,218.22,229.16,218.33Z" style="fill:#263238"></path><path d="M253,219.9a1.92,1.92,0,0,0,2,1.8,1.84,1.84,0,0,0,1.86-1.87,1.93,1.93,0,0,0-2-1.8A1.85,1.85,0,0,0,253,219.9Z" style="fill:#263238"></path><path d="M250.13,218.33c.26.23,1.64-1,3.7-1.09s3.65.78,3.86.52-.17-.56-.87-1a5.26,5.26,0,0,0-3.11-.72,5,5,0,0,0-2.92,1.17C250.19,217.76,250,218.22,250.13,218.33Z" style="fill:#263238"></path><path d="M263.8,191.36a12.39,12.39,0,0,0,2.36,13.3c1.39,1.44,3.15,2.54,4.36,4.15,2.5,3.33,2.09,7.91,2.49,12.05.18,1.92.63,4,2,5.27s4.05,1.4,5-.25a5.16,5.16,0,0,0,.52-1.67q1.31-6.93,2.6-13.85c.65-3.47,1.31-7,.71-10.5a14.8,14.8,0,0,0-18.51-11.76" style="fill:#263238"></path><path d="M266,188.43c-4.81-.92-7.51-2.46-10.91-4a16,16,0,0,0-10.84-1.23c-2.42.68-4.71,2.14-7.2,2.11s-4.7-1.49-7.06-2.24a12.6,12.6,0,0,0-9.79,1c-2.33,1.28-4.42,3.57-4.62,6.37s2.3,5.69,4.81,4.89c-2.62.91-3.68,4.77-2.38,7.34A6.72,6.72,0,0,0,225,206a12.73,12.73,0,0,0,7.06-4.31c.06,3.12,3.19,5.31,6.09,5.22s5.52-1.83,7.91-3.62,4.81-3.74,7.65-4.37c2-.44,4-.2,6-.44s4.15-1.11,5.12-3,4.81-4.11,2.8-4.17" style="fill:#263238"></path><path d="M237.5,203.78a11.48,11.48,0,0,0,1.07.57,5.09,5.09,0,0,0,3.21,0,8.55,8.55,0,0,0,2.06-.91c.7-.42,1.41-1,2.17-1.51a18,18,0,0,1,2.51-1.6,7.22,7.22,0,0,1,3.14-.79c2.23,0,4.24.56,6.06.4a5.48,5.48,0,0,0,4.08-2.22,6,6,0,0,0,1.22-3c.08-.78,0-1.22.05-1.22s.05.1.09.31a4.4,4.4,0,0,1,.06.92,5.78,5.78,0,0,1-1.12,3.2,5.94,5.94,0,0,1-1.73,1.64,5.83,5.83,0,0,1-2.6.84c-1.94.19-4-.4-6.09-.36s-3.89,1.19-5.39,2.26c-.77.54-1.49,1.07-2.23,1.49a8.28,8.28,0,0,1-2.19.89,5.07,5.07,0,0,1-3.38-.15,3.14,3.14,0,0,1-.78-.52Q237.49,203.8,237.5,203.78Z" style="fill:#263238"></path><path d="M264.51,183.49a21.29,21.29,0,0,0,.29,3.32,19.9,19.9,0,0,0,1.31,3.07,5.74,5.74,0,0,1-1.6-6.39Z" style="fill:#263238"></path><path d="M269.84,183.27c.11.11-1.18,1.33-2.14,3.25s-1.23,3.66-1.38,3.63a6.49,6.49,0,0,1,.91-3.87A6.67,6.67,0,0,1,269.84,183.27Z" style="fill:#263238"></path><polygon points="336.71 331.55 358.48 387.56 325.16 387.56 309.63 347.68 336.71 331.55" style="fill:#b78876"></polygon><path d="M218.71,286.07S190,315.62,177.6,315.62c-4.06,0-7.24-49.22-7.29-63.41h0a18.6,18.6,0,0,1,2.79-5.09,24,24,0,0,1,3.61-4,24.75,24.75,0,0,1,5.63-3.63c1.94-.68,2.1-3.33.33-3.86s-7.15,1.22-12,5.79-3.38-5.66-2.92-9.39,1.33-15.36.29-16.38c-1.52-1.5-3.45-.11-3.83,3.63S162,234.2,160,233.91s.66-19.28.66-19.28,1.21-4-1-4.4c-4.08-.73-5.35,19.63-5.42,21.57,0,1.35-2.2,1.12-2.07-.33s3-18.9-1.11-19.69c-3.17-.6-1.2,16.75-3.81,20.08s-.15-13.35-3.21-13.8c-1.14-.16-2-.13-2,9.61,0,5.24,2,13.15,1.22,23.23h0c1.32,29.76-.14,113.33,33,103.43,36.41-10.9,61.29-34.75,61.29-34.75Z" style="fill:#b78876"></path><path d="M299.09,312.55a5.81,5.81,0,0,1,.32,1.18c.18.76.41,1.87.67,3.25.51,2.76,1.12,6.59,1.59,10.84s.71,8.12.81,10.92c0,1.4.07,2.54.06,3.32a4.86,4.86,0,0,1-.06,1.22,6.38,6.38,0,0,1-.14-1.21c-.06-.89-.14-2-.23-3.31-.19-2.79-.49-6.64-1-10.88s-1-8.07-1.44-10.84c-.2-1.3-.36-2.39-.5-3.27A5.25,5.25,0,0,1,299.09,312.55Z" style="fill:#263238"></path><path d="M213.85,387.56l91.72.46-3.09-19.36a149.29,149.29,0,0,0-.13-27.61L307,353.64l37.91-19s-13.78-36.74-25.32-49.19c-14.57-15.73-40.8-14.16-40.8-14.16l-17.72,12-16.31-11.49a79.27,79.27,0,0,0-25.2,7.33l-.84.24v.18c-9.62,5-23.35,17.27-36.42,29.16l15.09,14.69,16.71,15.57a13.62,13.62,0,0,1,2.86-.12C217.24,340.57,213.85,387.56,213.85,387.56Z" style="fill:#455a64"></path><path d="M299.53,306.68,312,351.14l-5,2.5-4.64-12.59S297.83,314.69,299.53,306.68Z" style="opacity:0.2"></path><path d="M243.74,271.67v-4.8s14.32-1.11,17.22,15.81c0,0,4.67-15.81,18.57-17.4l2,7.39s-6.59,20.59-7.54,20.77-13,3.69-13,3.69l-7-1.58-7.75-8.83Z" style="fill:#455a64"></path><path d="M281.84,272.11a5.48,5.48,0,0,1-.8.83c-.52.53-1.28,1.27-2.18,2.24a51.47,51.47,0,0,0-6.21,8.16c-.44.72-.84,1.43-1.22,2.12l-.23.42-.22-.42c-1.59-3-3-5.6-4.08-7.63a3.37,3.37,0,0,0-.91-1,2,2,0,0,0-1-.35,2.4,2.4,0,0,0-.87.15s.23-.32.88-.33a2,2,0,0,1,1.1.31,3.53,3.53,0,0,1,1.06,1.08c1.13,1.89,2.57,4.54,4.24,7.57H271c.38-.7.78-1.43,1.23-2.15a43.62,43.62,0,0,1,6.39-8.15c.94-.94,1.74-1.65,2.31-2.13A4.06,4.06,0,0,1,281.84,272.11Z" style="fill:#263238"></path><path d="M242.81,273a3.81,3.81,0,0,1,.68.72c.42.49,1,1.2,1.71,2.09,1.43,1.77,3.37,4.24,5.49,7l.34.44-.44,0c.77-1.41.83-3,1.18-4.46a5.34,5.34,0,0,1,2-3.34,2.94,2.94,0,0,1,2.58-.33,2.14,2.14,0,0,1,.61.39c.11.13.15.2.14.21a4.14,4.14,0,0,0-.81-.41,2.82,2.82,0,0,0-2.32.44,5.05,5.05,0,0,0-1.71,3.15,17.48,17.48,0,0,1-1.19,4.6l-.19.35-.24-.32-.34-.44c-2.12-2.75-4-5.26-5.37-7.09-.67-.91-1.21-1.66-1.58-2.18A3.85,3.85,0,0,1,242.81,273Z" style="fill:#263238"></path><path d="M253,387.56a1,1,0,0,1,0-.28c0-.2,0-.47,0-.79,0-.74.09-1.76.16-3.06.17-2.69.42-6.52.71-11.23.66-9.52,1.56-22.6,2.55-37.05l2.69-37c.37-4.71.67-8.53.88-11.22.11-1.3.2-2.32.27-3.05,0-.33.06-.59.08-.8a1,1,0,0,1,0-.26.7.7,0,0,1,0,.27l0,.79c0,.74-.1,1.76-.17,3.06-.17,2.69-.41,6.52-.71,11.23-.65,9.52-1.55,22.6-2.54,37.05s-2,27.53-2.7,37c-.37,4.71-.66,8.53-.87,11.22q-.18,1.95-.27,3.06c0,.32-.06.58-.08.79A.84.84,0,0,1,253,387.56Z" style="fill:#263238"></path><path d="M220.07,298.6a9,9,0,0,1-.09,1.59c-.08,1.11-.2,2.56-.34,4.32-.27,3.64-.55,8.69-.86,14.27s-.65,10.62-1,14.27c-.18,1.82-.36,3.3-.51,4.31a8.75,8.75,0,0,1-.29,1.57,9,9,0,0,1,.09-1.59c.09-1.11.2-2.57.34-4.32.28-3.65.55-8.7.87-14.27s.64-10.63,1-14.28c.18-1.82.36-3.29.51-4.31A9.41,9.41,0,0,1,220.07,298.6Z" style="fill:#263238"></path><path d="M260,280.26s-4.92,6.43-4.2,7.39l4.2,5.61h3s2.8-7.86,2.08-8.86S260,280.26,260,280.26Z" style="fill:#F07524"></path><polygon points="267.5 278.53 262.07 282.77 264.15 286.76 269.73 282.64 267.5 278.53" style="fill:#F07524"></polygon><polygon points="251.55 281.21 256.5 285.34 259.24 281.21 252.99 276.46 251.55 281.21" style="fill:#F07524"></polygon><polygon points="259.94 293.25 252.39 360.91 259.82 384.43 269.73 361.12 263.21 292.45 259.94 293.25" style="fill:#F07524"></polygon><path d="M312.77,280.68a6.61,6.61,0,0,0-1-.67,4.24,4.24,0,0,0-3.11-.18,9.64,9.64,0,0,0-3.87,2.73,23.25,23.25,0,0,0-3.54,4.73,24,24,0,0,0-3,10.25c-.16,2.77.19,4.48.08,4.49a6.44,6.44,0,0,1-.26-1.19,19.55,19.55,0,0,1-.18-3.31,22.77,22.77,0,0,1,2.91-10.5,22.35,22.35,0,0,1,3.65-4.81,9.61,9.61,0,0,1,4.11-2.74,4.27,4.27,0,0,1,3.31.35,2.89,2.89,0,0,1,.71.58C312.73,280.57,312.78,280.67,312.77,280.68Z" style="fill:#263238"></path></g><g id="freepik--character-1--inject-2"><path d="M384.24,197c-6.41,3.93-10.86,10.5-13.5,17.53s-3.64,14.57-4.42,22A428.86,428.86,0,0,0,364.25,296c24.23,3.06,48.65,6.14,73,4.48-4.23-27.83-6.91-55.63-3.52-83.58" style="fill:#263238"></path><path d="M438.67,428.27,421,392.59l6.74-26.1c.79,5.53,1.49,10.33,1.49,10.33l37.85-2a2.4,2.4,0,0,0,2.25-2.74L462,319.88s-2.37-24.22-25.3-33.22h0l-.11,0c-.92-.36-1.88-.68-2.87-1-30.91-10.72-59.86-10.65-92.07.34,0,0-14.31,3.85-21.25,22.52s-14,46.11-14,46.11L338.5,366l.21-5.43,7.1,27.16-15.57,39.56,54.35,1.34Z" style="fill:#F07524"></path><path d="M306.43,354.28l-3.61,17c-3.1,14.65,7.75,29.69,22.63,31.38l79.11,8.12a31.45,31.45,0,0,0,34.85-28.5h0l-99.74-9.5.62-9.58Z" style="fill:#F07524"></path><path d="M405.36,371.67l6.14-1.14s14.56-15.93,17.29-16.15c2.25-.19,14.64-.07,19,0a1.5,1.5,0,0,1,1.48,1.5h0a1.5,1.5,0,0,1-1.45,1.5l-14.63.57-.07,1.18,14.65.19c1.5.12,2.45,2.48-2.32,2.91l-12.26.43v.76l12.43,1.74c.63.09,2.28.41,2.29,1.05,0,0,.76,1.55-2.79,2-1.21.15-12-.21-12-.21l.41,1,11.18,2.41a1.58,1.58,0,0,1,1.23,1.77h0a1.58,1.58,0,0,1-1.72,1.36l-11.93-1.1-11.72,9.35H404.87Z" style="fill:#ffbe9d"></path><path d="M366.48,278.3s15.41,78.8,20.84,78.23S418.22,281,418.22,281,385.67,271.09,366.48,278.3Z" style="fill:#fafafa"></path><path d="M434.67,354.58c-.14,0-.26-5.44-.26-12.14s.12-12.13.26-12.13.26,5.43.26,12.13S434.82,354.58,434.67,354.58Z" style="fill:#263238"></path><path d="M340.07,355.09a24.2,24.2,0,0,1,.32-3.49c.27-2.16.67-5.12,1.15-8.39s.93-6.24,1.29-8.37a23.69,23.69,0,0,1,.69-3.45,24.27,24.27,0,0,1-.32,3.5c-.27,2.15-.67,5.12-1.15,8.39s-.93,6.22-1.29,8.36A23.69,23.69,0,0,1,340.07,355.09Z" style="fill:#263238"></path><path d="M384.59,428.58a3.18,3.18,0,0,1,0-.73c0-.53,0-1.22,0-2.09,0-1.82,0-4.45.07-7.7.12-6.5.47-15.47.92-25.37s.85-18.87,1.07-25.37c.09-3.2.17-5.81.23-7.69,0-.86,0-1.56.06-2.09a3.47,3.47,0,0,1,.06-.73,4.14,4.14,0,0,1,0,.73q0,.79,0,2.1c0,1.81,0,4.44-.06,7.69-.12,6.5-.48,15.47-.92,25.38s-.86,18.87-1.07,25.36c-.1,3.21-.18,5.82-.23,7.69,0,.87,0,1.57-.07,2.09A5.94,5.94,0,0,1,384.59,428.58Z" style="fill:#263238"></path><path d="M418.09,280.87s.05.34.17,1a14.2,14.2,0,0,0,.79,2.72,29.15,29.15,0,0,0,2,4,56.69,56.69,0,0,1,2.83,5.28,12.72,12.72,0,0,1,1.2,7.16,9.23,9.23,0,0,1-1.61,3.77,25.23,25.23,0,0,1-2.82,3.26,51,51,0,0,0-6,6.88,16.39,16.39,0,0,0-3.09,9.06,11.17,11.17,0,0,0,1.06,4.74,42.5,42.5,0,0,1,1.94,4.49,6.61,6.61,0,0,1,.31,2.42,5,5,0,0,1-.75,2.3,12.43,12.43,0,0,1-3.33,3.12l-12.53,9.24-8.47,6.18-2.32,1.67-.61.42-.22.13s.06-.07.19-.18l.58-.46,2.26-1.74L398,350l12.46-9.32a11.85,11.85,0,0,0,3.19-3,4.46,4.46,0,0,0,.68-2.07,6.27,6.27,0,0,0-.3-2.25,40.92,40.92,0,0,0-1.93-4.42A11.59,11.59,0,0,1,411,324a16.81,16.81,0,0,1,3.19-9.34,49.92,49.92,0,0,1,6.08-6.94c2.05-2,3.94-4.21,4.34-6.77a12.26,12.26,0,0,0-1.11-6.93,55.63,55.63,0,0,0-2.75-5.29,29.34,29.34,0,0,1-1.93-4.09,12.63,12.63,0,0,1-.7-2.78,7,7,0,0,1-.07-.74A.78.78,0,0,1,418.09,280.87Z" style="fill:#263238"></path><path d="M387.26,355.72l-.24,0-.71-.13a22.46,22.46,0,0,1-2.67-.73,26.64,26.64,0,0,1-8.79-5,26.09,26.09,0,0,1-8.07-12.6,26.76,26.76,0,0,1-1-8.86,28.89,28.89,0,0,1,.63-4.68,10.89,10.89,0,0,0,.13-4.68,3.87,3.87,0,0,0-1.21-1.89,6.43,6.43,0,0,0-2.06-1c-.74-.25-1.51-.45-2.26-.76a6.31,6.31,0,0,1-2-1.32,7.88,7.88,0,0,1-2.06-4.13,16.34,16.34,0,0,1-.24-4.39,59.71,59.71,0,0,1,3.28-14.71,61.3,61.3,0,0,1,4.2-9.25c.59-1,1.07-1.84,1.42-2.36l.39-.6a.81.81,0,0,1,.15-.2s0,.08-.1.22l-.35.63c-.32.54-.77,1.36-1.34,2.41a67,67,0,0,0-4,9.27,62.43,62.43,0,0,0-3.15,14.62,16.59,16.59,0,0,0,.26,4.26,7.52,7.52,0,0,0,1.92,3.87,6,6,0,0,0,1.87,1.2c.7.29,1.46.49,2.23.75a6.74,6.74,0,0,1,2.22,1.12,4.36,4.36,0,0,1,1.38,2.15,11.26,11.26,0,0,1-.12,4.91,30,30,0,0,0-.63,4.62,26.69,26.69,0,0,0,1,8.7,25.92,25.92,0,0,0,7.85,12.45,27.55,27.55,0,0,0,8.62,5.13c1.12.4,2,.66,2.63.82l.69.18A1.33,1.33,0,0,1,387.26,355.72Z" style="fill:#263238"></path><path d="M428.88,371.78l-66.27-2.14.1,22,43.88,9.64,30.87,4.93c19.18,0,34.53-17.61,31.56-36.56l-.08,0Z" style="fill:#F07524"></path><path d="M447.12,371.36a4.87,4.87,0,0,1-.86.06l-2.46.07-9.06.16c-7.65.12-18.22.25-29.9.13s-22.25-.53-29.89-1c-3.82-.26-6.9-.5-9-.72l-2.45-.25a5.11,5.11,0,0,1-.86-.12,5.11,5.11,0,0,1,.86,0l2.46.15c2.14.15,5.23.34,9,.55,7.64.42,18.2.79,29.88.9s22.23,0,29.88,0h9.07l2.46,0A5.82,5.82,0,0,1,447.12,371.36Z" style="fill:#263238"></path><path d="M362.05,371.67l-6.14-1.14s-14.56-15.93-17.3-16.15c-2.24-.19-14.63-.07-18.95,0a1.5,1.5,0,0,0-1.48,1.5h0a1.5,1.5,0,0,0,1.44,1.5l14.64.57.07,1.18-14.66.19c-1.49.12-2.45,2.48,2.33,2.91l12.26.43v.76l-12.43,1.74c-.63.09-2.28.41-2.3,1.05,0,0-.75,1.55,2.79,2,1.22.15,12-.21,12-.21l-.42,1-11.17,2.41a1.6,1.6,0,0,0-1.24,1.77h0a1.59,1.59,0,0,0,1.72,1.36l11.94-1.1,11.72,9.35h15.66Z" style="fill:#ffbe9d"></path><path d="M436.28,405.85a3.27,3.27,0,0,1-.75,0l-2.14-.23c-1.87-.21-4.55-.55-7.87-1-6.64-.92-15.78-2.37-25.81-4.33s-19-4.08-25.54-5.74c-3.24-.82-5.86-1.52-7.66-2l-2.07-.6a5.13,5.13,0,0,1-.72-.24,3.6,3.6,0,0,1,.74.14l2.1.5,7.7,1.88c6.51,1.56,15.53,3.61,25.55,5.58s19.15,3.47,25.76,4.48l7.84,1.17,2.13.33A6.43,6.43,0,0,1,436.28,405.85Z" style="fill:#263238"></path><path d="M363.31,391.73a16.83,16.83,0,0,1-.58-3.13c-.26-2-.54-4.66-.7-7.65s-.15-5.72-.09-7.69a17.27,17.27,0,0,1,.25-3.17,21.49,21.49,0,0,1,.12,3.18c0,2,.09,4.66.24,7.65s.38,5.68.55,7.63A24,24,0,0,1,363.31,391.73Z" style="fill:#263238"></path><path d="M370.55,392.59a3.39,3.39,0,0,1-.29-.84c-.15-.54-.35-1.34-.55-2.33a57,57,0,0,1-1-15.78c.08-1,.18-1.83.27-2.39a2.92,2.92,0,0,1,.18-.86,27.87,27.87,0,0,1-.08,3.27c-.08,2-.11,4.8.08,7.87s.55,5.83.87,7.82A26.4,26.4,0,0,1,370.55,392.59Z" style="fill:#263238"></path><path d="M364.43,373.61c.06.06-.32.33-.31,1a1.21,1.21,0,0,0,.4.9,1,1,0,0,0,1.11,0,1,1,0,0,0,.53-1,1.2,1.2,0,0,0-.57-.8c-.53-.32-1-.13-1-.21s.41-.43,1.16-.11a1.5,1.5,0,0,1,.88,1,1.52,1.52,0,0,1-2.43,1.39,1.49,1.49,0,0,1-.46-1.27C363.86,373.74,364.43,373.54,364.43,373.61Z" style="fill:#263238"></path><path d="M376.48,395.84a2.77,2.77,0,0,1-.68,0c-.45,0-1.1,0-1.95,0a52.79,52.79,0,0,0-7.11.67,104.89,104.89,0,0,0-10.35,2.3c-3.87,1-8.09,2.25-12.62,3.24a54.14,54.14,0,0,1-13,1.41,32.87,32.87,0,0,1-10.47-2,23.85,23.85,0,0,1-6.26-3.53,15.79,15.79,0,0,1-1.45-1.31,3,3,0,0,1-.46-.5s.69.64,2,1.65a24.68,24.68,0,0,0,6.26,3.34A32.93,32.93,0,0,0,330.81,403a55,55,0,0,0,12.85-1.44c4.5-1,8.73-2.2,12.61-3.2a99.09,99.09,0,0,1,10.42-2.2,47.14,47.14,0,0,1,7.16-.5c.85,0,1.51,0,1.95.09A3.63,3.63,0,0,1,376.48,395.84Z" style="fill:#263238"></path><path d="M405.63,287.58c1.57-8.78,3.39-18,3.39-18s11.66.11,16.61-14.25c4.72-13.7,8.13-46.66,8.13-46.66h0a43.12,43.12,0,0,0-49.14,2.51h0L373,282.76c-1.35,8.31,4.72,16.09,13.63,17.46h0C395.62,301.61,404.13,296,405.63,287.58Z" style="fill:#ffbe9d"></path><path d="M425.09,233.35a1.92,1.92,0,0,1-2.16,1.59,1.83,1.83,0,0,1-1.66-2.05,1.93,1.93,0,0,1,2.17-1.59A1.84,1.84,0,0,1,425.09,233.35Z" style="fill:#263238"></path><path d="M428.54,231.77c-.28.21-1.53-1.11-3.57-1.46s-3.71.4-3.89.11c-.09-.12.23-.53,1-.89a5.35,5.35,0,0,1,3.17-.4,5.13,5.13,0,0,1,2.79,1.48C428.54,231.2,428.67,231.68,428.54,231.77Z" style="fill:#263238"></path><path d="M404.15,230a1.93,1.93,0,0,1-2.16,1.59,1.84,1.84,0,0,1-1.66-2,1.94,1.94,0,0,1,2.17-1.6A1.85,1.85,0,0,1,404.15,230Z" style="fill:#263238"></path><path d="M407.13,228.77c-.28.2-1.53-1.11-3.57-1.47s-3.71.41-3.89.12c-.09-.13.22-.54,1-.9a5.28,5.28,0,0,1,3.17-.39,5.06,5.06,0,0,1,2.79,1.47C407.13,228.19,407.26,228.68,407.13,228.77Z" style="fill:#263238"></path><path d="M411.86,245.19a14.35,14.35,0,0,1,3.42,0c.53,0,1,0,1.19-.32a2.7,2.7,0,0,0-.07-1.6c-.27-1.35-.55-2.76-.84-4.24-1.15-6-1.88-10.94-1.63-11s1.36,4.8,2.51,10.82c.27,1.49.53,2.9.77,4.25a3.09,3.09,0,0,1-.09,2.09,1.31,1.31,0,0,1-1,.61,3.33,3.33,0,0,1-.91,0A13.21,13.21,0,0,1,411.86,245.19Z" style="fill:#263238"></path><path d="M409,269.58a38.27,38.27,0,0,1-18.86-8.77s3,11,18,12.22Z" style="fill:#eb996e"></path><path d="M410.14,250a3.76,3.76,0,0,0-3.06-2,3.38,3.38,0,0,0-2.53.84,2.14,2.14,0,0,0-.59,2.4,2.51,2.51,0,0,0,2.55,1.15,7.93,7.93,0,0,0,2.88-1.1,2.31,2.31,0,0,0,.69-.5.68.68,0,0,0,.13-.76" style="fill:#eb996e"></path><path d="M405.62,245.55c.33,0-.06,2.25,1.56,4.16s4,2.07,4,2.39c0,.14-.6.33-1.6.18a5.56,5.56,0,0,1-3.34-1.86A4.9,4.9,0,0,1,405,247C405.12,246,405.47,245.51,405.62,245.55Z" style="fill:#263238"></path><path d="M394.61,200.62c3.95,8.71,16.75,19.31,26.63,23.07-.9-1.8-6.45-6.86-7.35-8.65,4,4.33,9.75,10.21,15.84,11.68a3.78,3.78,0,0,0,2.18.07,2.94,2.94,0,0,0,1.51-2.11,63,63,0,0,0,2.08-13.45A15,15,0,0,0,432,200.7c-3.37-3.79-8.87-5.6-14.16-6.73-4.44-.94-9.08-1.54-13.46-.7s-8.46,3.36-9.77,7.07" style="fill:#263238"></path><path d="M371.05,233.42a83.34,83.34,0,0,1,.38-10.13c1-7.69,3.39-35.66,29.2-28.46L397.89,202s2,18-11.27,27.66c0,0,.06,18-9.12,24.45,0,0-6.4-12.18-6.45-20.68" style="fill:#263238"></path><path d="M387.17,228.43a9,9,0,0,0-4.81-.53,6.25,6.25,0,0,0-4,2.55,6.52,6.52,0,0,0-.87,4.71,11,11,0,0,0,2,4.45A7.5,7.5,0,0,0,382,242a3.58,3.58,0,0,0,3.38.07" style="fill:#ffbe9d"></path><path d="M384.61,237.86c.17.09-.68.93-2.06.28a3.14,3.14,0,0,1-1.51-1.87,6.91,6.91,0,0,1-.32-2.76,4.19,4.19,0,0,1,1.15-2.67,2.8,2.8,0,0,1,2.3-.86c1.49.23,1.77,1.34,1.59,1.34s-.62-.53-1.63-.47a2.7,2.7,0,0,0-2.19,2.76c-.11,1.66.25,3.26,1.05,3.78S384.54,237.71,384.61,237.86Z" style="fill:#eb996e"></path><path d="M384.59,242.06c-4,23.91-.75,48.35,0,72.59.07,2.32.09,4.75-1,6.82-1.59,3.13-5.31,4.66-8.82,4.87s-7-.6-10.49-.89c-.38-2.32-.75-4.65-1.13-7-1.17,2.68-2.34,5.35-3.5,8q2.31-25.5,5.06-51" style="fill:#263238"></path></g></svg>