<svg xmlns="http://www.w3.org/2000/svg" viewBox="0 0 500 500"><g id="freepik--question-marks-2--inject-46"><path d="M373.67,338.61v-3.35c0-17.25,21.84-18,21.84-30.28,0-5.33-4.34-8.81-10.8-8.81-7.07,0-11.54,3.85-11.54,9.31v1.37c0,1.36-.74,2-2.11,2l-13.27-.5c-1.24,0-2.11-.62-2.11-1.48v-1.37c0-15,11.91-25.31,29.41-25.31,17.12,0,28.16,9.68,28.16,24.19,0,20.6-22.21,20.73-22.21,32v2.23a1.9,1.9,0,0,1-2.11,2.11H375.78A1.9,1.9,0,0,1,373.67,338.61Zm-1.12,20c0-5.46,4.84-9.93,10.67-9.93,5.59,0,10.55,4.47,10.55,9.93s-5,9.93-10.67,9.93S372.55,364.05,372.55,358.59Z" style="fill:#263238"></path><path d="M111.47,196.51V193.6c0-15,19-15.63,19-26.3,0-4.64-3.77-7.65-9.37-7.65-6.15,0-10,3.34-10,8.08v1.19c0,1.18-.64,1.72-1.83,1.72l-11.53-.43c-1.08,0-1.83-.54-1.83-1.29v-1.19c0-13,10.34-22,25.54-22,14.87,0,24.47,8.41,24.47,21,0,17.89-19.3,18-19.3,27.81v1.94a1.65,1.65,0,0,1-1.83,1.83H113.3A1.65,1.65,0,0,1,111.47,196.51Zm-1,17.35c0-4.74,4.2-8.62,9.26-8.62,4.85,0,9.17,3.88,9.17,8.62s-4.32,8.62-9.27,8.62A8.91,8.91,0,0,1,110.5,213.86Z" style="fill:#F07524"></path><path d="M352.83,81.76V80.29c0-7.57,9.58-7.9,9.58-13.29,0-2.34-1.91-3.87-4.74-3.87-3.1,0-5.06,1.69-5.06,4.09v.6c0,.6-.33.87-.93.87l-5.82-.22c-.55,0-.93-.27-.93-.65v-.6c0-6.59,5.23-11.11,12.91-11.11,7.51,0,12.36,4.25,12.36,10.62,0,9-9.75,9.09-9.75,14v1a.83.83,0,0,1-.93.92h-5.77A.82.82,0,0,1,352.83,81.76Zm-.49,8.77A4.67,4.67,0,1,1,357,94.88,4.5,4.5,0,0,1,352.34,90.53Z" style="fill:#F07524"></path><path d="M72,284v-1.85c0-9.54,12.08-9.95,12.08-16.75,0-2.95-2.4-4.87-6-4.87-3.91,0-6.38,2.13-6.38,5.15v.75c0,.76-.41,1.1-1.17,1.1l-7.34-.27c-.69,0-1.17-.35-1.17-.83v-.75c0-8.3,6.59-14,16.27-14,9.47,0,15.57,5.35,15.57,13.38,0,11.39-12.28,11.46-12.28,17.71V284a1.05,1.05,0,0,1-1.17,1.17H73.15A1.05,1.05,0,0,1,72,284Zm-.62,11.05a5.88,5.88,0,1,1,5.84,5.49A5.68,5.68,0,0,1,71.36,295.05Z" style="fill:none;stroke:#263238;stroke-miterlimit:10"></path><path d="M164,111.38v-1.27c0-6.56,8.31-6.85,8.31-11.52,0-2-1.65-3.35-4.11-3.35-2.69,0-4.39,1.46-4.39,3.54v.52c0,.52-.28.75-.8.75l-5-.19c-.47,0-.8-.23-.8-.56v-.52c0-5.71,4.53-9.63,11.18-9.63S179,92.83,179,98.35c0,7.84-8.45,7.89-8.45,12.18v.85a.72.72,0,0,1-.8.8h-5A.72.72,0,0,1,164,111.38Zm-.42,7.6a4,4,0,1,1,4,3.78A3.9,3.9,0,0,1,163.55,119Z" style="fill:#263238"></path><path d="M312,385.53v-1.27c0-6.56,8.31-6.84,8.31-11.52,0-2-1.65-3.35-4.11-3.35-2.69,0-4.39,1.46-4.39,3.54v.52c0,.52-.28.76-.8.76l-5-.19c-.47,0-.8-.24-.8-.57v-.52c0-5.71,4.53-9.63,11.18-9.63s10.72,3.68,10.72,9.21c0,7.83-8.45,7.88-8.45,12.17v.85a.73.73,0,0,1-.8.81h-5A.73.73,0,0,1,312,385.53Zm-.42,7.6a4,4,0,1,1,4,3.78A3.9,3.9,0,0,1,311.59,393.13Z" style="fill:none;stroke:#263238;stroke-miterlimit:10"></path></g><g id="freepik--question-mark-1--inject-46"><path d="M272.85,408.29c-.07-.21-.14-.42-.22-.63s-.14-.43-.22-.64-.14-.42-.22-.63-.14-.43-.22-.64-.14-.42-.22-.63-.14-.43-.22-.64l-.22-.63c-.07-.22-.15-.43-.22-.64l-.22-.63c-.07-.22-.15-.43-.22-.64l-.22-.63c-.07-.22-.15-.43-.22-.64L270,400c-.07-.22-.15-.43-.22-.64l-.23-.63c-.07-.22-.14-.43-.22-.64s-.14-.42-.22-.63-.14-.43-.22-.64-.14-.42-.22-.63c-3.26-9.92-13.34-17.2-24.43-17.2-10.75,0-20.1,6.26-24,15.08-.1.2-.19.41-.28.61l-.27.62c-.1.2-.19.4-.28.61s-.19.41-.28.61l-.27.61c-.1.21-.19.41-.28.62s-.19.4-.28.61-.19.4-.28.61l-.27.61c-.1.2-.19.41-.28.61s-.19.41-.28.61l-.27.62c-.1.2-.19.4-.28.61s-.19.41-.28.61l-.27.61c-.1.21-.19.41-.28.62s-.19.4-.28.61l-.27.61c-.1.2-.19.41-.28.61s-.19.41-.28.62A27.21,27.21,0,0,0,212.12,418c0,16.1,13.9,29.26,31.09,29.26,16.82,0,31.45-13.16,31.45-29.26a26.42,26.42,0,0,0-1.59-9C273,408.71,272.93,408.5,272.85,408.29Z" style="fill:#263238"></path><path d="M249.06,186.8c-51.57,0-86.68,30.35-86.68,74.61v4a3.84,3.84,0,0,0,1.9,3.26,4.91,4.91,0,0,0,.7.56,4.38,4.38,0,0,0,.71.56,4.38,4.38,0,0,0,.71.56,4,4,0,0,0,.71.56,4.3,4.3,0,0,0,.7.56,4.43,4.43,0,0,0,.71.57,5,5,0,0,0,.71.56,4.5,4.5,0,0,0,.71.56,4.41,4.41,0,0,0,.7.56,4.65,4.65,0,0,0,.77.6,5.63,5.63,0,0,0,.65.51,5,5,0,0,0,.71.56,4.91,4.91,0,0,0,.7.56,5,5,0,0,0,.71.56,4.5,4.5,0,0,0,.71.56,4.41,4.41,0,0,0,.7.56,4.5,4.5,0,0,0,.71.56,4.41,4.41,0,0,0,.7.56,5,5,0,0,0,.71.56,4.41,4.41,0,0,0,.7.56,5.89,5.89,0,0,0,4.2,1.46l32.16,1.2c3.31,0,5.11-1.5,5.11-4.81v-3.3c0-13.23,10.82-22.54,28-22.54,15.63,0,26.15,8.41,26.15,21.34a23.1,23.1,0,0,1-.42,4.39c-16.14,21.16-58.15,30.49-58.15,71.56v9.88c0,4,2.19,6.21,6.22,6.21H260.4c4,0,6.22-2.19,6.22-6.21v-6.59c0-33.28,65.47-33.65,65.47-94.36C332.09,215.32,299.53,186.8,249.06,186.8Z" style="fill:#263238"></path><path d="M215.41,359.07v-9.88c0-50.84,64.37-53,64.37-89.24,0-15.73-12.8-26-31.82-26-20.85,0-34,11.34-34,27.43v4c0,4-2.2,5.86-6.22,5.86l-39.14-1.47c-3.65,0-6.21-1.83-6.21-4.39v-4c0-44.26,35.11-74.61,86.68-74.61,50.47,0,83,28.52,83,71.32,0,60.71-65.47,61.08-65.47,94.36v6.59c0,4-2.2,6.21-6.22,6.21H221.63C217.6,365.28,215.41,363.09,215.41,359.07ZM212.12,418c0-16.09,14.26-29.26,31.45-29.26,16.46,0,31.09,13.17,31.09,29.26S260,447.21,243.21,447.21C226,447.21,212.12,434.05,212.12,418Z" style="fill:#F07524;stroke:#F07524;stroke-miterlimit:10"></path><ellipse cx="241.61" cy="467.79" rx="54.61" ry="12.21" style="fill:#263238"></ellipse></g><g id="freepik--Character--inject-46"><path d="M199.87,190.85l-2.09,4.56s-12.14,1.31-12.14,2.22.13,7.18.79,7.44a2.15,2.15,0,0,0,1.56,0l17.88-4.57,1.7-8.09Z" style="fill:#fff;stroke:#263238;stroke-linecap:round;stroke-linejoin:round"></path><path d="M196.47,199a43.45,43.45,0,0,1-7.15,4.76c-2.89,1.3-3,3.27-2.08,3.27s9.08-3.42,9.08-3.42,7.41-1.94,8.48-2.53,1.19-3.87,1.19-3.87" style="fill:#fff;stroke:#263238;stroke-linecap:round;stroke-linejoin:round"></path><polygon points="210.55 103.23 203.09 160.41 197.9 191.37 209.42 194.09 218.01 157.47 222.08 134.42 210.55 103.23" style="fill:#7d7d7d;stroke:#263238;stroke-linecap:round;stroke-linejoin:round"></polygon><polygon points="270.75 61.83 266.2 61.11 256.88 57.58 256.54 68.65 270.99 69.98 270.75 61.83" style="fill:#fff;stroke:#263238;stroke-linecap:round;stroke-linejoin:round"></polygon><path d="M217.56,264.6A140.28,140.28,0,0,0,208.07,277c-3.85,5.88-2.49,12.2,2.26,13.79s10.84-2.72,12.43-6.11,1.13-5.19,3.61-8.58,4.52-6.78,3.62-11.3S220,261.44,217.56,264.6Z" style="fill:#7d7d7d;stroke:#263238;stroke-linecap:round;stroke-linejoin:round"></path><path d="M222.3,285.53c-.32-.68-.69-1.4-1.13-2.17-3.63-6.39-10-5.88-14-4.69-2.63,5.37-1.13,10.71,3.18,12.15S220.22,288.74,222.3,285.53Z" style="fill:#fff;stroke:#263238;stroke-linecap:round;stroke-linejoin:round"></path><path d="M221.17,283.36c-1.35,2-3.16,7.46-10.17,5.2a9.66,9.66,0,0,1-5-3.15,6.59,6.59,0,0,0,4.37,5.41c4.74,1.58,10.84-2.72,12.43-6.11s1.13-5.19,3.61-8.58,4.52-6.78,3.62-11.3c0,5.42-2,6.32-4.52,9.26S222.53,281.32,221.17,283.36Z" style="fill:#fff;stroke:#263238;stroke-linecap:round;stroke-linejoin:round"></path><path d="M284.25,264.6A140.28,140.28,0,0,1,293.74,277c3.85,5.88,2.49,12.2-2.26,13.79s-10.84-2.72-12.43-6.11-1.13-5.19-3.61-8.58-4.52-6.78-3.62-11.3S281.77,261.44,284.25,264.6Z" style="fill:#7d7d7d;stroke:#263238;stroke-linecap:round;stroke-linejoin:round"></path><path d="M279.52,285.53c.31-.68.68-1.4,1.12-2.17,3.63-6.39,10-5.88,14-4.69,2.63,5.37,1.13,10.71-3.18,12.15S281.59,288.74,279.52,285.53Z" style="fill:#fff;stroke:#263238;stroke-linecap:round;stroke-linejoin:round"></path><path d="M280.64,283.36c1.35,2,3.16,7.46,10.17,5.2a9.66,9.66,0,0,0,5-3.15,6.59,6.59,0,0,1-4.37,5.41c-4.74,1.58-10.84-2.72-12.43-6.11s-1.13-5.19-3.61-8.58-4.52-6.78-3.62-11.3c0,5.42,2,6.32,4.52,9.26S279.28,281.32,280.64,283.36Z" style="fill:#fff;stroke:#263238;stroke-linecap:round;stroke-linejoin:round"></path><path d="M294.85,186.63c0-4.07-7-8.59-7-8.59-10.55-10.73-29.59-9.31-36.62-8.35-7-1-26.06-2.38-36.61,8.35,0,0-7,4.52-7,8.59s8.82,77.52,8.82,77.52-.23,3.84,6.1,4.29,9-3.16,9-3.16l2.49-62.15s10.17-7.24,12-7.46c.66-.09,1.52-.23,2.48-.35v.12a13.3,13.3,0,0,1,5.43,0v-.12c1,.12,1.81.26,2.48.35,1.81.22,12,7.46,12,7.46l2.49,62.15s2.71,3.61,9,3.16,6.1-4.29,6.1-4.29S294.85,190.7,294.85,186.63Z" style="fill:#263238;stroke:#263238;stroke-linecap:round;stroke-linejoin:round"></path><path d="M268.41,203.13s-1.36-14.92,5.2-20.57" style="fill:none;stroke:#707070;stroke-linecap:round;stroke-linejoin:round"></path><path d="M234.06,203.13s.68-12.43-.68-16.95-3.62-6.33-3.62-6.33" style="fill:none;stroke:#707070;stroke-linecap:round;stroke-linejoin:round"></path><path d="M242.42,173.52s7.23,8.36,8.59,15.37" style="fill:none;stroke:#707070;stroke-linecap:round;stroke-linejoin:round"></path><path d="M258.24,174s-4.07,4.52-4.52,7.91" style="fill:none;stroke:#707070;stroke-linecap:round;stroke-linejoin:round"></path><path d="M248.07,86.06s-6.55-.91-8.81,1.35S229.31,98,229.31,98l4.07,71.87s9.27,3.62,17.18,3.62,16.95-2.94,19-4.52.23-78.65.23-78.65S253,85.38,248.07,86.06Z" style="fill:#F07524;stroke:#263238;stroke-linecap:round;stroke-linejoin:round"></path><path d="M260.05,87.64a82.4,82.4,0,0,1,10.39-.91c4.52,0,9,.23,9,.23l11.3-10.85L268,70.91l1.81-10.39s16.72-1.13,25.08.45,21.47,5.65,22.15,5.65,1.58,2.49.9,4.29S296,96.23,289.65,102.33a155.92,155.92,0,0,0-11.75,12.88L275,165.61s7.46,4.07,8.82,5.42,2.94,6.78,2.94,6.78-13.79-5.65-17.41-6.1-5.87-.68-6.55-2-6.33-61.7-6.33-61.7l.23-19.21S256.66,87.64,260.05,87.64Z" style="fill:#7d7d7d;stroke:#263238;stroke-linecap:round;stroke-linejoin:round"></path><polygon points="273.61 118.6 261.4 120.18 262.53 124.7 268.64 126.28 274.51 123.57 273.61 118.6" style="fill:none;stroke:#263238;stroke-linecap:round;stroke-linejoin:round"></polygon><polyline points="280.61 91.48 277.9 115.21 284.91 95.1" style="fill:none;stroke:#263238;stroke-linecap:round;stroke-linejoin:round"></polyline><path d="M290.78,76.11s5.65,1.13,14.24-2.26" style="fill:none;stroke:#263238;stroke-linecap:round;stroke-linejoin:round"></path><path d="M296.66,77.69a51.07,51.07,0,0,0,11.07-.9" style="fill:none;stroke:#263238;stroke-linecap:round;stroke-linejoin:round"></path><path d="M240.39,85.83l1.13,16.5a10.87,10.87,0,0,0,8.81,4.29c5.65-.22,6.33-4.29,6.33-4.29V88.77Z" style="fill:#fff;stroke:#263238;stroke-linecap:round;stroke-linejoin:round"></path><path d="M256.88,94.42,256.43,108l4.75-7.46s5.2,6.55,6.55,6.33-.9-2.94-1.35-5.42-4.3-11.31-4.75-13.79-4.75-2.94-5-1.81a11.54,11.54,0,0,0,0,2.94Z" style="fill:#7d7d7d;stroke:#263238;stroke-linecap:round;stroke-linejoin:round"></path><path d="M241.29,106.62s.9,63.28-1.36,64-11.3.91-17,3.62-8.36,3.84-8.36,3.84,2.71-6.55,5.88-9.49a31.21,31.21,0,0,1,7-4.75l-5.87-30.28s-10.85-28.71-11.08-30.29,20.57-13.33,24.86-15.37,5.43-.22,5.43-.22Z" style="fill:#7d7d7d;stroke:#263238;stroke-linecap:round;stroke-linejoin:round"></path><path d="M235.64,84.7s-5.42,17.18-5.88,19.44,0,2.26,1.59.67S237,99.39,237,99.39l4.29,7.23-.23-13.33V85.6S240.84,82.44,235.64,84.7Z" style="fill:#7d7d7d;stroke:#263238;stroke-linecap:round;stroke-linejoin:round"></path><polygon points="225.02 121.77 238.35 121.77 238.13 127.19 232.25 129.22 224.79 127.19 225.02 121.77" style="fill:none;stroke:#263238;stroke-linecap:round;stroke-linejoin:round"></polygon><path d="M261.63,62.33s3.16,13.78,3.84,16-3.61,11.08-5,13.11a6.58,6.58,0,0,1-5,3.16c-1.58,0-10.17-2.93-12.21-4.29s-4.06-2.94-4.06-2.94a5.43,5.43,0,0,1-5.88-.9c-2.71-2.49-6.33-5.43-5.43-7.46a5.31,5.31,0,0,1,5.2-3.16c2.49,0,1.59-.23,1.59-.23s-4.52-6.55-4.52-11.75,9.71-9,15.36-9a30.18,30.18,0,0,1,11.3,2.71Z" style="fill:#fff;stroke:#263238;stroke-linecap:round;stroke-linejoin:round"></path><polyline points="253.72 67.52 257.79 75.21 253.72 77.92 251.91 75.66" style="fill:none;stroke:#263238;stroke-linecap:round;stroke-linejoin:round"></polyline><path d="M261.18,74.53s.22,1.81-2.49,4.75" style="fill:none;stroke:#263238;stroke-linecap:round;stroke-linejoin:round"></path><path d="M249.43,70.35c0,1.06-.46,1.92-1,1.92s-1-.86-1-1.92.46-1.92,1-1.92S249.43,69.29,249.43,70.35Z" style="fill:#263238"></path><ellipse cx="256.54" cy="66.73" rx="1.02" ry="1.92" style="fill:#263238"></ellipse><path d="M237.22,50.57S223,55.77,222.53,62.33s12.66,15.59,13.34,16.72,2.71-1.36,2.71-1.36a5.25,5.25,0,0,1-.91-4.29c.68-2.26,3.62-5,3.62-6.1s-3.39.9-3.39-2.49,8.36-5.42,13.33-5.2,9.27,8.59,12.89,4.52-1.59-5.19-1.59-5.19,7-.91,7-4.52-3.62-6.11-5.2-6.11-5.87,2.72-5.87-.22,4.29-4.3.22-9-9.26,0-9.26,1.81-1.36,5.19-2.26,5.19-3.62-4.06-6.78-1.8A8.38,8.38,0,0,0,237.22,50.57Z" style="fill:#263238;stroke:#263238;stroke-linecap:round;stroke-linejoin:round"></path><line x1="243.1" y1="67.98" x2="250.33" y2="65.26" style="fill:none;stroke:#263238;stroke-linecap:round;stroke-linejoin:round"></line><path d="M251.46,62.1a3.11,3.11,0,0,1,.32-2.08" style="fill:none;stroke:#263238;stroke-linecap:round;stroke-linejoin:round"></path><path d="M251.78,60c.51-1,1.66-2.29,4.2-3.34" style="fill:none;stroke:#fff;stroke-linecap:round;stroke-linejoin:round"></path></g></svg>