<?xml version="1.0" encoding="UTF-8"?>
<svg width="200px" height="200px" viewBox="0 0 200 200" version="1.1" xmlns="http://www.w3.org/2000/svg" xmlns:xlink="http://www.w3.org/1999/xlink">
    <!-- Generator: Sketch 42 (36781) - http://www.bohemiancoding.com/sketch -->
    <title>Badge 1</title>
    <desc>Created with Sketch.</desc>
    <defs></defs>
    <g id="Page-1" stroke="none" stroke-width="1" fill="none" fill-rule="evenodd">
        <g id="Badge-1">
            <g id="Group-2" transform="translate(16.000000, 15.000000)">
                <path d="M94.7991311,166.824788 C88.8349357,165.658211 79.1692262,165.657397 73.2008689,166.824788 L59.5248661,169.499769 C53.5606707,170.666346 45.9903272,167.514561 42.6185777,162.463876 L34.7055644,150.610641 C31.3326745,145.558248 24.5386198,138.680439 19.5285775,135.247227 L7.91022073,127.28556 C2.9010922,123.852974 -0.237651067,116.23189 0.899761258,110.262765 L3.59094586,96.1394614 C4.72830453,90.1706172 4.72835818,80.4934903 3.59094586,74.5243646 L0.899761258,60.4010614 C-0.237597418,54.4322172 2.90017848,46.8114781 7.91022073,43.3782657 L19.5285775,35.416599 C24.5377061,31.9840127 31.333815,25.1038696 34.7055644,20.0531847 L42.6185777,8.1999501 C45.9914676,3.14755693 53.5565089,-0.00333367672 59.5248661,1.16405716 L73.2008689,3.83903786 C79.1650643,5.00561465 88.8307738,5.00642869 94.7991311,3.83903786 L108.475134,1.16405716 C114.439329,-0.00251963462 122.009673,3.14926519 125.381422,8.1999501 L133.294436,20.0531847 C136.667325,25.1055778 143.46138,31.9833866 148.471422,35.416599 L160.089779,43.3782657 C165.098908,46.810852 168.237651,54.4319357 167.100239,60.4010614 L164.409054,74.5243646 C163.271695,80.4932088 163.271642,90.1703357 164.409054,96.1394614 L167.100239,110.262765 C168.237597,116.231609 165.099822,123.852348 160.089779,127.28556 L148.471422,135.247227 C143.462294,138.679813 136.666185,145.559956 133.294436,150.610641 L125.381422,162.463876 C122.008532,167.516269 114.443491,170.66716 108.475134,169.499769 L94.7991311,166.824788 Z" id="Star" fill="#6776CD"></path>
                <circle id="Oval-7-Copy-5" fill="#8595F0" cx="84" cy="85" r="75.3731467"></circle>
                <g id="Group" transform="translate(18.839506, 19.839506)" fill="#FFFFFF">
                    <path d="M120.965744,59.9291197 L120.965744,52.7506257 L123.725564,52.7506257 C124.318015,52.7506257 124.840516,52.8452519 125.293082,53.034507 C125.745649,53.2237622 126.123331,53.4796642 126.426139,53.8022208 C126.728947,54.1247774 126.957696,54.503282 127.112391,54.937746 C127.267087,55.3722099 127.344433,55.8362895 127.344433,56.3299986 C127.344433,56.8763699 127.258858,57.3700716 127.087706,57.8111183 C126.916553,58.2521651 126.672171,58.6298469 126.354552,58.944175 C126.036932,59.2585031 125.655959,59.5012397 125.211621,59.6723922 C124.767283,59.8435447 124.271935,59.9291197 123.725564,59.9291197 L120.965744,59.9291197 Z M122.935633,58.2110207 L123.725564,58.2110207 C123.982293,58.2110207 124.211864,58.1632962 124.414285,58.0678458 C124.616705,57.9723954 124.787033,57.8407416 124.925271,57.6728805 C125.06351,57.5050194 125.16801,57.3067159 125.238775,57.0779641 C125.30954,56.8492122 125.344922,56.5998928 125.344922,56.3299986 C125.344922,56.0535215 125.307894,55.8009108 125.233838,55.5721589 C125.159781,55.3434071 125.053635,55.1475721 124.915397,54.9846481 C124.777158,54.8217241 124.606831,54.6950073 124.404411,54.604494 C124.20199,54.5139807 123.97571,54.4687247 123.725564,54.4687247 L122.935633,54.4687247 L122.935633,58.2110207 Z" id="D" transform="translate(124.155089, 56.339873) rotate(81.000000) translate(-124.155089, -56.339873) "></path>
                    <polygon id="E" transform="translate(122.495937, 48.179175) rotate(73.000000) translate(-122.495937, -48.179175) " points="119.938537 51.7684217 119.938537 44.5899278 124.96447 44.5899278 124.96447 46.3080268 121.908426 46.3080268 121.908426 47.3201253 124.520134 47.3201253 124.520134 48.9147976 121.908426 48.9147976 121.908426 50.0503228 125.053337 50.0503228 125.053337 51.7684217"></polygon>
                    <polygon id="E" transform="translate(119.937166, 41.065460) rotate(68.000000) translate(-119.937166, -41.065460) " points="117.379766 44.654707 117.379766 37.4762131 122.405699 37.4762131 122.405699 39.194312 119.349655 39.194312 119.349655 40.2064106 121.961363 40.2064106 121.961363 41.8010829 119.349655 41.8010829 119.349655 42.9366081 122.494567 42.9366081 122.494567 44.654707"></polygon>
                    <path d="M96.0427825,19.1027182 L96.0427825,11.9242243 L99.3407426,11.9242243 C99.6896303,11.9242243 100.012182,11.9966339 100.308408,12.1414552 C100.604633,12.2862765 100.858889,12.474706 101.071184,12.7067493 C101.283479,12.9387925 101.450515,13.2053914 101.572296,13.506554 C101.694078,13.8077165 101.754968,14.1096973 101.754968,14.4125056 C101.754968,14.8305126 101.663633,15.219714 101.480961,15.5801217 C101.298288,15.9405293 101.045678,16.2342818 100.723121,16.4613879 L102.2388,19.1027182 L100.017121,19.1027182 L98.7532317,16.9007868 L98.0126718,16.9007868 L98.0126718,19.1027182 L96.0427825,19.1027182 Z M98.0126718,15.1777508 L99.2568125,15.1777508 C99.378594,15.1777508 99.4921454,15.1102782 99.59747,14.9753311 C99.7027946,14.8403839 99.7554561,14.6527773 99.7554561,14.4125056 C99.7554561,14.1623596 99.6945662,13.9714617 99.5727847,13.8398059 C99.4510031,13.7081502 99.3292234,13.6423233 99.2074418,13.6423233 L98.0126718,13.6423233 L98.0126718,15.1777508 Z" id="R" transform="translate(99.140791, 15.513471) rotate(36.000000) translate(-99.140791, -15.513471) "></path>
                    <path d="M102.069042,24.1740999 L104.567197,16.995606 L106.364289,16.995606 L108.852571,24.1740999 L106.853059,24.1740999 L106.418597,22.7670361 L104.503016,22.7670361 L104.078428,24.1740999 L102.069042,24.1740999 Z M104.79924,21.4537766 L106.102625,21.4537766 L105.465743,19.2320969 L104.79924,21.4537766 Z" id="A" transform="translate(105.460806, 20.584853) rotate(43.000000) translate(-105.460806, -20.584853) "></path>
                    <path d="M1.45463455,57.6432344 L2.3038099,55.9152613 C2.54079025,56.063374 2.78599541,56.1950278 3.03943273,56.3102266 C3.25666472,56.4122598 3.50186988,56.5035946 3.77505556,56.5842338 C4.04824124,56.6648729 4.32635985,56.7051919 4.60941971,56.7051919 C4.8266517,56.7051919 4.97640787,56.6763926 5.05869271,56.6187932 C5.14097756,56.5611938 5.18211936,56.4846701 5.18211936,56.3892197 C5.18211936,56.2871865 5.14015472,56.2016115 5.05622418,56.1324922 C4.97229364,56.063373 4.85627375,56.0016603 4.70816103,55.9473523 C4.56004831,55.8930443 4.38972124,55.8387371 4.1971747,55.7844291 C4.00462817,55.7301211 3.80138765,55.6667627 3.58744705,55.594352 C3.27147325,55.485736 2.99829167,55.3688933 2.7678941,55.2438204 C2.53749654,55.1187474 2.34824424,54.9772196 2.20013152,54.8192327 C2.0520188,54.6612458 1.94258159,54.4810447 1.87181663,54.278624 C1.80105166,54.0762032 1.76566971,53.8433406 1.76566971,53.5800291 C1.76566971,53.1817705 1.83807929,52.8312423 1.98290061,52.5284341 C2.12772194,52.2256258 2.3252026,51.9730152 2.57534853,51.7705944 C2.82549446,51.5681737 3.11019575,51.4151262 3.42946094,51.3114473 C3.74872614,51.2077684 4.08773461,51.1559297 4.44649653,51.1559297 C4.70980803,51.1559297 4.96571006,51.1806148 5.21421029,51.2299857 C5.46271052,51.2793566 5.7038015,51.342715 5.93749046,51.4200628 C6.17117941,51.4974105 6.38840814,51.5821626 6.58918316,51.6743217 C6.78995818,51.7664807 6.9726278,51.8520556 7.13719749,51.9310491 L6.28802214,53.5602809 C6.08724712,53.4384993 5.87824675,53.3315306 5.66101476,53.2393716 C5.4799881,53.1570867 5.27592475,53.080563 5.04881858,53.009798 C4.82171241,52.939033 4.60119234,52.9036511 4.38725174,52.9036511 C4.21280787,52.9036511 4.07292573,52.9308047 3.96760113,52.9851127 C3.86227653,53.0394207 3.80961502,53.1307555 3.80961502,53.2591198 C3.80961502,53.3545703 3.84005996,53.4319168 3.90095074,53.4911619 C3.96184153,53.550407 4.04906215,53.605537 4.16261524,53.6565536 C4.27616832,53.7075702 4.41605046,53.7569404 4.58226585,53.8046656 C4.74848123,53.8523908 4.93526503,53.9091665 5.14262283,53.9749944 C5.47176221,54.0770276 5.76962888,54.1881105 6.03623178,54.3082464 C6.30283467,54.4283822 6.53076027,54.5715557 6.72001541,54.7377711 C6.90927055,54.9039865 7.05408971,55.1047585 7.15447722,55.3400931 C7.25486473,55.5754278 7.30505773,55.8625976 7.30505773,56.2016112 C7.30505773,56.6327837 7.22606547,56.9948316 7.06807856,57.2877657 C6.91009166,57.5806997 6.70109129,57.8143852 6.44107119,57.988829 C6.18105108,58.1632729 5.88812143,58.2891668 5.56227344,58.3665146 C5.23642546,58.4438623 4.90729102,58.4825356 4.57486025,58.4825356 C4.31154875,58.4825356 4.04248134,58.4627876 3.76764996,58.4232908 C3.49281858,58.3837941 3.21881416,58.3270184 2.94562848,58.2529621 C2.67244279,58.1789057 2.40913524,58.0908622 2.15569792,57.988829 C1.9022606,57.8867958 1.66857515,57.7715988 1.45463455,57.6432344 Z" id="S" transform="translate(4.379846, 54.819233) rotate(279.000000) translate(-4.379846, -54.819233) "></path>
                    <path d="M12.5704485,31.535139 L13.4196238,29.8071659 C13.6566042,29.9552786 13.9018093,30.0869324 14.1552466,30.2021312 C14.3724786,30.3041644 14.6176838,30.3954992 14.8908695,30.4761383 C15.1640552,30.5567775 15.4421738,30.5970964 15.7252336,30.5970964 C15.9424656,30.5970964 16.0922218,30.5682972 16.1745066,30.5106978 C16.2567915,30.4530984 16.2979333,30.3765746 16.2979333,30.2811242 C16.2979333,30.179091 16.2559686,30.0935161 16.1720381,30.0243968 C16.0881076,29.9552775 15.9720877,29.8935648 15.8239749,29.8392568 C15.6758622,29.7849488 15.5055352,29.7306416 15.3129886,29.6763336 C15.1204421,29.6220256 14.9172016,29.5586673 14.703261,29.4862566 C14.3872872,29.3776406 14.1141056,29.2607979 13.883708,29.1357249 C13.6533105,29.0106519 13.4640581,28.8691241 13.3159454,28.7111372 C13.1678327,28.5531503 13.0583955,28.3729492 12.9876305,28.1705285 C12.9168656,27.9681078 12.8814836,27.7352452 12.8814836,27.4719337 C12.8814836,27.073675 12.9538932,26.7231469 13.0987145,26.4203386 C13.2435359,26.1175304 13.4410165,25.8649197 13.6911624,25.662499 C13.9413084,25.4600783 14.2260097,25.3070308 14.5452749,25.2033519 C14.8645401,25.099673 15.2035485,25.0478343 15.5623104,25.0478343 C15.8256219,25.0478343 16.081524,25.0725194 16.3300242,25.1218903 C16.5785244,25.1712612 16.8196154,25.2346196 17.0533044,25.3119673 C17.2869933,25.3893151 17.5042221,25.4740672 17.7049971,25.5662262 C17.9057721,25.6583852 18.0884417,25.7439602 18.2530114,25.8229536 L17.4038361,27.4521854 C17.203061,27.3304038 16.9940607,27.2234352 16.7768287,27.1312761 C16.595802,27.0489913 16.3917387,26.9724675 16.1646325,26.9017026 C15.9375263,26.8309376 15.7170062,26.7955556 15.5030657,26.7955556 C15.3286218,26.7955556 15.1887396,26.8227092 15.083415,26.8770172 C14.9780904,26.9313252 14.9254289,27.02266 14.9254289,27.1510244 C14.9254289,27.2464748 14.9558739,27.3238214 15.0167647,27.3830665 C15.0776554,27.4423116 15.1648761,27.4974416 15.2784292,27.5484582 C15.3919822,27.5994748 15.5318644,27.648845 15.6980798,27.6965702 C15.8642951,27.7442954 16.0510789,27.8010711 16.2584367,27.866899 C16.5875761,27.9689322 16.8854428,28.080015 17.1520457,28.2001509 C17.4186486,28.3202868 17.6465742,28.4634603 17.8358293,28.6296756 C18.0250845,28.795891 18.1699036,28.996663 18.2702911,29.2319977 C18.3706786,29.4673324 18.4208716,29.7545022 18.4208716,30.0935157 C18.4208716,30.5246883 18.3418794,30.8867362 18.1838925,31.1796702 C18.0259056,31.4726043 17.8169052,31.7062897 17.5568851,31.8807336 C17.296865,32.0551775 17.0039353,32.1810714 16.6780874,32.2584191 C16.3522394,32.3357669 16.0231049,32.3744402 15.6906742,32.3744402 C15.4273627,32.3744402 15.1582953,32.3546921 14.8834639,32.3151954 C14.6086325,32.2756987 14.3346281,32.218923 14.0614424,32.1448666 C13.7882567,32.0708103 13.5249492,31.9827668 13.2715118,31.8807336 C13.0180745,31.7787004 12.7843891,31.6635033 12.5704485,31.535139 Z" id="S-Copy" transform="translate(15.495660, 28.711137) rotate(307.000000) translate(-15.495660, -28.711137) "></path>
                    <polygon id="F" transform="translate(20.568770, 22.743515) rotate(-46.000000) translate(-20.568770, -22.743515) " points="18.1076426 26.3327624 18.1076426 19.1542684 23.0298974 19.1542684 23.0298974 20.8723674 20.077532 20.8723674 20.077532 22.0671374 22.4868201 22.0671374 22.4868201 23.6618097 20.077532 23.6618097 20.077532 26.3327624"></polygon>
                    <path d="M2.8720159,50.4052018 L5.37017129,43.2267079 L7.1672633,43.2267079 L9.65554455,50.4052018 L7.65603283,50.4052018 L7.22157102,48.998138 L5.30598943,48.998138 L4.88140175,50.4052018 L2.8720159,50.4052018 Z M5.60221339,47.6848784 L6.9055988,47.6848784 L6.26871729,45.4631987 L5.60221339,47.6848784 Z" id="A" transform="translate(6.263780, 46.815955) rotate(-72.000000) translate(-6.263780, -46.815955) "></path>
                    <path d="M22.762152,21.3185484 L25.2603074,14.1400545 L27.0573994,14.1400545 L29.5456807,21.3185484 L27.5461689,21.3185484 L27.1117071,19.9114846 L25.1961255,19.9114846 L24.7715379,21.3185484 L22.762152,21.3185484 Z M25.4923495,18.598225 L26.7957349,18.598225 L26.1588534,16.3765454 L25.4923495,18.598225 Z" id="A-Copy" transform="translate(26.153916, 17.729301) rotate(-38.000000) translate(-26.153916, -17.729301) "></path>
                    <path d="M29.8770726,12.6875233 C29.8770726,12.2497679 29.9593563,11.8186018 30.1239259,11.394012 C30.2884956,10.9694222 30.5295866,10.5884491 30.8472061,10.2510813 C31.1648256,9.91371339 31.5490901,9.64053181 32.000011,9.4315283 C32.450932,9.2225248 32.9660274,9.11802461 33.5453127,9.11802461 C34.2397968,9.11802461 34.8421128,9.2611981 35.3522788,9.54754935 C35.8624448,9.83390061 36.2409495,10.2124052 36.487804,10.6830745 L34.9819989,11.7544178 C34.916171,11.579974 34.8273047,11.4351548 34.7153973,11.319956 C34.6034899,11.2047573 34.4800645,11.1134224 34.3451174,11.0459489 C34.2101702,10.9784753 34.0702881,10.9315736 33.9254667,10.9052425 C33.7806454,10.8789113 33.6407633,10.865746 33.5058161,10.865746 C33.2227563,10.865746 32.978374,10.9216988 32.7726618,11.0336062 C32.5669497,11.1455136 32.3982683,11.2903328 32.2666126,11.468068 C32.1349568,11.6458033 32.0378622,11.8473981 31.9753257,12.0728586 C31.9127892,12.2983191 31.8815214,12.5229533 31.8815214,12.7467681 C31.8815214,12.996914 31.9185491,13.2363593 31.9926054,13.4651112 C32.0666618,13.6938631 32.1744533,13.8954579 32.3159832,14.0699018 C32.4575132,14.2443457 32.6311316,14.3842278 32.8368437,14.4895524 C33.0425558,14.594877 33.2721271,14.6475385 33.5255644,14.6475385 C33.6605115,14.6475385 33.798748,14.6327275 33.9402779,14.6031049 C34.0818079,14.5734824 34.2183987,14.5232894 34.3500544,14.4525244 C34.4817102,14.3817594 34.6001986,14.2904246 34.7055232,14.1785172 C34.8108478,14.0666098 34.8931314,13.9300191 34.9523765,13.7687408 L36.56186,14.7265316 C36.453244,14.9898431 36.2894996,15.225997 36.0706219,15.4350005 C35.8517442,15.644004 35.6024249,15.8192681 35.3226564,15.9607981 C35.0428879,16.102328 34.7425528,16.2101195 34.4216419,16.2841759 C34.100731,16.3582322 33.7888761,16.3952599 33.4860679,16.3952599 C32.9528621,16.3952599 32.4657431,16.289114 32.0246963,16.0768191 C31.5836496,15.8645242 31.2034993,15.5831143 30.8842341,15.2325808 C30.5649689,14.8820474 30.3172952,14.4846175 30.1412057,14.0402794 C29.9651161,13.5959412 29.8770726,13.145027 29.8770726,12.6875233 Z" id="C" transform="translate(33.219466, 12.756642) rotate(-29.000000) translate(-33.219466, -12.756642) "></path>
                    <polygon id="T" transform="translate(8.987654, 39.286556) rotate(296.000000) translate(-8.987654, -39.286556) " points="5.93407902 37.4154081 5.93407902 35.6973092 12.0412296 35.6973092 12.0412296 37.4154081 9.98247311 37.4154081 9.98247311 42.8758031 8.00764673 42.8758031 8.00764673 37.4154081"></polygon>
                    <polygon id="T-Copy" transform="translate(40.375808, 8.999075) rotate(337.000000) translate(-40.375808, -8.999075) " points="37.3222323 7.12792725 37.3222323 5.40982829 43.4293829 5.40982829 43.4293829 7.12792725 41.3706264 7.12792725 41.3706264 12.5883222 39.3958 12.5883222 39.3958 7.12792725"></polygon>
                    <polygon id="I" transform="translate(12.021447, 33.504465) rotate(302.000000) translate(-12.021447, -33.504465) " points="11.0365022 37.0937119 11.0365022 29.915218 13.0063915 29.915218 13.0063915 37.0937119"></polygon>
                    <polygon id="I-Copy" transform="translate(46.227643, 7.020701) rotate(344.000000) translate(-46.227643, -7.020701) " points="45.2426979 10.6099481 45.2426979 3.43145414 47.2125872 3.43145414 47.2125872 10.6099481"></polygon>
                    <path d="M49.4432714,5.38069249 C49.4432714,4.91002318 49.5346062,4.45499482 49.7172786,4.01559375 C49.8999509,3.57619268 50.1542073,3.19028255 50.4800552,2.85785178 C50.8059032,2.52542101 51.193459,2.25964495 51.6427343,2.06051562 C52.0920095,1.8613863 52.581597,1.76182313 53.1115114,1.76182313 C53.6578828,1.76182313 54.1540529,1.86632332 54.6000368,2.07532682 C55.0460207,2.28433033 55.4269938,2.56080326 55.7429676,2.9047539 C56.0589414,3.24870455 56.3033237,3.6395517 56.4761219,4.07730707 C56.64892,4.51506244 56.7353178,4.96268528 56.7353178,5.42018902 C56.7353178,5.89085833 56.643983,6.34424102 56.4613107,6.78035069 C56.2786383,7.21646037 56.0252048,7.60072483 55.7010025,7.9331556 C55.3768002,8.26558637 54.9908901,8.5330081 54.5432605,8.73542882 C54.095631,8.93784953 53.6052207,9.03905838 53.0720149,9.03905838 C52.5256435,9.03905838 52.0302962,8.93455819 51.585958,8.72555469 C51.1416199,8.51655118 50.7614696,8.24172392 50.4454958,7.90106467 C50.129522,7.56040541 49.883494,7.17120394 49.7074044,6.73344857 C49.5313149,6.29569319 49.4432714,5.84477901 49.4432714,5.38069249 Z M51.4477202,5.40044075 C51.4477202,5.64400389 51.4814565,5.87851218 51.54893,6.10397265 C51.6164036,6.32943313 51.7167896,6.5293823 51.8500911,6.70382617 C51.9833925,6.87827004 52.1528967,7.01979785 52.3586089,7.12841384 C52.564321,7.23702984 52.8087033,7.29133702 53.0917631,7.29133702 C53.374823,7.29133702 53.620851,7.23538417 53.8298545,7.12347678 C54.038858,7.01156939 54.2091851,6.86675024 54.3408408,6.68901497 C54.4724966,6.51127971 54.5704141,6.30803919 54.6345963,6.07928732 C54.6987784,5.85053546 54.7308691,5.61767284 54.7308691,5.38069249 C54.7308691,5.13712935 54.6971328,4.90262106 54.6296592,4.67716059 C54.5621856,4.45170012 54.4593311,4.25339662 54.3210926,4.08224414 C54.182854,3.91109166 54.0108813,3.7728552 53.8051692,3.6675306 C53.5994571,3.562206 53.3583661,3.50954449 53.081889,3.50954449 C52.7988292,3.50954449 52.5544468,3.56385167 52.3487347,3.67246766 C52.1430226,3.78108366 51.9726955,3.92425714 51.8377484,4.1019924 C51.7028012,4.27972767 51.6040609,4.48132251 51.5415244,4.70678298 C51.478988,4.93224346 51.4477202,5.1634604 51.4477202,5.40044075 Z" id="O" transform="translate(53.089295, 5.400441) rotate(-4.000000) translate(-53.089295, -5.400441) "></path>
                    <polygon id="N" points="59.225181 8.02765604 59.225181 0.849162114 60.7606085 0.849162114 63.6438551 4.49765387 63.6438551 0.849162114 65.6137444 0.849162114 65.6137444 8.02765604 64.0486945 8.02765604 61.1950703 4.49765387 61.1950703 8.02765604"></polygon>
                    <polygon id="N-Copy" transform="translate(111.438000, 27.027040) rotate(51.000000) translate(-111.438000, -27.027040) " points="108.243719 30.6162873 108.243719 23.4377934 109.779146 23.4377934 112.662393 27.0862851 112.662393 23.4377934 114.632282 23.4377934 114.632282 30.6162873 113.067232 30.6162873 110.213608 27.0862851 110.213608 30.6162873"></polygon>
                    <polygon id="T" transform="translate(116.482318, 33.951650) rotate(60.000000) translate(-116.482318, -33.951650) " points="113.428743 32.0805018 113.428743 30.3624028 119.535894 30.3624028 119.535894 32.0805018 117.477137 32.0805018 117.477137 37.5408968 115.502311 37.5408968 115.502311 32.0805018"></polygon>
                    <path d="M71.5673961,5.32246086 C71.5673961,4.87153991 71.648034,4.42967693 71.8093123,3.99685865 C71.9705906,3.56404037 72.2034532,3.18142158 72.5079071,2.84899081 C72.8123611,2.51656004 73.1851058,2.2491383 73.6261526,2.04671759 C74.0671993,1.84429687 74.5674837,1.74308803 75.1270206,1.74308803 C75.7458027,1.74308803 76.291343,1.86733628 76.763658,2.11583651 C77.235973,2.36433674 77.6070721,2.72885313 77.8769664,3.20939662 L76.3119165,4.42885192 C76.2987509,4.39593798 76.2650146,4.32764259 76.2107066,4.22396368 C76.1563986,4.12028478 76.0765835,4.01413892 75.9712589,3.90552293 C75.8659343,3.79690693 75.7342805,3.70063511 75.5762936,3.61670457 C75.4183067,3.53277403 75.2274088,3.49080938 75.003594,3.49080938 C74.7600308,3.49080938 74.5477391,3.54511657 74.3667125,3.65373256 C74.1856858,3.76234856 74.0359296,3.90552204 73.9174395,4.0832573 C73.7989493,4.26099256 73.7117287,4.46258741 73.655775,4.68804788 C73.5998213,4.91350836 73.5718448,5.14143396 73.5718448,5.37183152 C73.5718448,5.57918933 73.5965299,5.79641806 73.6459008,6.02352423 C73.6952717,6.2506304 73.7759097,6.45633942 73.8878171,6.64065747 C73.9997245,6.82497553 74.1461893,6.97637737 74.3272159,7.09486754 C74.5082426,7.21335772 74.7304083,7.27260192 74.9937198,7.27260192 C75.2767797,7.27260192 75.5277447,7.21006638 75.7466224,7.08499341 C75.9655001,6.95992045 76.1226618,6.82003831 76.2181122,6.6653428 L75.0973982,6.6653428 L75.0973982,4.94724385 L78.3509247,4.94724385 L78.3509247,5.84578985 C78.3509247,6.28354522 78.2768695,6.69496327 78.1287567,7.08005635 C77.980644,7.46514942 77.769998,7.80086655 77.4968123,8.0872178 C77.2236266,8.37356906 76.8912008,8.60067183 76.499525,8.76853291 C76.1078491,8.93639399 75.6733916,9.02032327 75.1961396,9.02032327 C74.656351,9.02032327 74.164295,8.91746876 73.7199568,8.71175665 C73.2756187,8.50604454 72.8954684,8.23121728 72.5794946,7.88726663 C72.2635208,7.54331598 72.0158471,7.14917749 71.8364662,6.70483933 C71.6570852,6.26050117 71.5673961,5.79971296 71.5673961,5.32246086 Z" id="G" transform="translate(74.959160, 5.381706) rotate(12.000000) translate(-74.959160, -5.381706) "></path>
                    <path d="M80.2878926,7.76031947 L80.2878926,4.07233119 L82.262719,4.07233119 L82.262719,7.76031947 C82.262719,7.99729983 82.2857584,8.22522543 82.331838,8.44410311 C82.3779175,8.6629808 82.4519727,8.85552445 82.5540059,9.02173983 C82.6560391,9.18795522 82.7860472,9.31960899 82.9440341,9.41670511 C83.102021,9.51380122 83.2962104,9.56234855 83.5266079,9.56234855 C83.7570055,9.56234855 83.9528405,9.51215555 84.1141188,9.41176804 C84.2753971,9.31138053 84.406228,9.17808108 84.5066155,9.0118657 C84.607003,8.84565031 84.6810583,8.65475234 84.7287835,8.43916605 C84.7765087,8.22357975 84.8003709,7.99729983 84.8003709,7.76031947 L84.8003709,4.07233119 L86.7702603,4.07233119 L86.7702603,7.76031947 C86.7702603,8.26061133 86.7060791,8.72798223 86.5777147,9.16244621 C86.4493503,9.59691019 86.2510468,9.97294629 85.9827982,10.2905658 C85.7145497,10.6081853 85.376364,10.8575046 84.9682312,11.0385313 C84.5600984,11.2195579 84.0795621,11.3100699 83.5266079,11.3100699 C82.9539054,11.3100699 82.4634951,11.2146209 82.0553623,11.0237201 C81.6472294,10.8328192 81.3115123,10.5752715 81.0482008,10.2510693 C80.7848893,9.92686697 80.5923457,9.55083087 80.4705641,9.12294968 C80.3487825,8.69506849 80.2878926,8.24086297 80.2878926,7.76031947 Z" id="U" transform="translate(83.529076, 7.691201) rotate(20.000000) translate(-83.529076, -7.691201) "></path>
                    <path d="M88.4166553,14.6411308 L90.9148107,7.46263689 L92.7119027,7.46263689 L95.200184,14.6411308 L93.2006722,14.6411308 L92.7662104,13.234067 L90.8506288,13.234067 L90.4260412,14.6411308 L88.4166553,14.6411308 Z M91.1468528,11.9208075 L92.4502382,11.9208075 L91.8133567,9.69912778 L91.1468528,11.9208075 Z" id="A-Copy" transform="translate(91.808420, 11.051884) rotate(28.000000) translate(-91.808420, -11.051884) "></path>
                </g>
                <path d="M67.2611521,73.3145134 C67.9084595,73.8301651 68.5968991,74.2059269 69.3264914,74.4418101 C70.0560837,74.6776934 70.8926337,74.7956332 71.8361666,74.7956332 C72.9881544,74.7956332 73.8274472,74.6200948 74.3540702,74.2690128 C74.8806932,73.9179308 75.1440008,73.3638879 75.1440008,72.6068673 C75.1440008,71.7511049 74.806638,71.1367206 74.1319022,70.763696 C73.4571665,70.3906714 72.3573089,70.2041618 70.8322965,70.2041618 L69.7790557,70.2041618 L69.7790557,65.7608025 L70.9639516,65.7608025 C71.5015459,65.7608025 71.989762,65.7059467 72.4286145,65.5962336 C72.867467,65.4865205 73.2432288,65.3329244 73.5559112,65.1354408 C73.8685936,64.9379572 74.1099589,64.6965919 74.2800142,64.4113378 C74.4500696,64.1260836 74.535096,63.8024348 74.535096,63.4403815 C74.535096,62.9027871 74.3431009,62.4803979 73.9591049,62.1732012 C73.575109,61.8660044 73.0375227,61.7124084 72.3463301,61.7124084 C71.5563955,61.7124084 70.8213286,61.9071462 70.1411073,62.2966278 C69.4608859,62.6861094 68.8574727,63.2758086 68.3308497,64.0657432 L64.2824556,59.3261598 C64.6883942,58.876336 65.2012954,58.464918 65.8211745,58.0918933 C66.4410537,57.7188687 67.1349788,57.3979626 67.9029707,57.1291655 C68.6709626,56.8603683 69.4965414,56.6519165 70.3797321,56.5038038 C71.2629228,56.3556911 72.1652997,56.2816358 73.0868899,56.2816358 C74.3376196,56.2816358 75.4731334,56.4242607 76.4934655,56.7095149 C77.5137975,56.994769 78.3887466,57.3952159 79.1183389,57.9108676 C79.8479312,58.4265193 80.4129453,59.0491319 80.8133982,59.7787242 C81.2138511,60.5083165 81.4140746,61.3229242 81.4140746,62.2225719 C81.4140746,62.8808506 81.3043631,63.5171772 81.0849368,64.1315707 C80.8655106,64.7459642 80.5610612,65.3000072 80.1715796,65.7937162 C79.782098,66.2874253 79.3213098,66.7043289 78.7892011,67.0444396 C78.2570925,67.3845503 77.68385,67.6094588 77.0694565,67.719172 C77.7606492,67.8288851 78.394233,68.0647648 78.9702269,68.4268181 C79.5462208,68.7888714 80.0426653,69.2386885 80.4595751,69.7762828 C80.876485,70.3138771 81.2001339,70.9255186 81.4305314,71.6112256 C81.660929,72.2969327 81.7761261,73.0182857 81.7761261,73.7753062 C81.7761261,74.8395236 81.5539603,75.7967562 81.1096222,76.6470329 C80.665284,77.4973097 80.0289574,78.2186626 79.2006233,78.8111135 C78.3722892,79.4035644 77.3656864,79.858867 76.1807846,80.1770351 C74.9958829,80.4952032 73.6628884,80.6542848 72.1817612,80.6542848 C70.4482938,80.6542848 68.9178187,80.4348619 67.5902898,79.9960094 C66.262761,79.5571569 65.0614203,78.8769457 63.9862317,77.9553554 L67.2611521,73.3145134 Z M83.964892,68.6572145 C83.964892,66.8688906 84.1980289,65.21499 84.6643097,63.6954632 C85.1305904,62.1759364 85.7751454,60.867627 86.5979938,59.7704958 C87.4208423,58.6733645 88.3972744,57.8148722 89.5273196,57.194993 C90.6573648,56.5751138 91.891619,56.2651789 93.2301191,56.2651789 C94.5576479,56.2651789 95.7864165,56.5751138 96.9164617,57.194993 C98.0465069,57.8148722 99.0229391,58.6733645 99.8457875,59.7704958 C100.668636,60.867627 101.313191,62.1759364 101.779472,63.6954632 C102.245752,65.21499 102.478889,66.8688906 102.478889,68.6572145 C102.478889,70.4345671 102.245752,72.0692682 101.779472,73.5613667 C101.313191,75.0534652 100.668636,76.3370895 99.8457875,77.4122782 C99.0229391,78.4874668 98.0465069,79.3267596 96.9164617,79.9301818 C95.7864165,80.533604 94.5576479,80.8353106 93.2301191,80.8353106 C91.891619,80.8353106 90.6573648,80.533604 89.5273196,79.9301818 C88.3972744,79.3267596 87.4208423,78.4874668 86.5979938,77.4122782 C85.7751454,76.3370895 85.1305904,75.0534652 84.6643097,73.5613667 C84.1980289,72.0692682 83.964892,70.4345671 83.964892,68.6572145 Z M90.3666209,68.6572145 C90.3666209,69.0082965 90.3830776,69.4087434 90.4159915,69.8585672 C90.4489055,70.308391 90.506504,70.7664365 90.5887888,71.2327173 C90.6710737,71.698998 90.7807851,72.1570435 90.9179266,72.6068673 C91.055068,73.0566911 91.2306063,73.457138 91.4445469,73.80822 C91.6584875,74.159302 91.9108239,74.4418091 92.2015637,74.6557497 C92.4923035,74.8696903 92.8351519,74.976659 93.2301191,74.976659 C93.6031437,74.976659 93.9295354,74.8751758 94.2093039,74.6722065 C94.4890723,74.4692373 94.7331804,74.2004441 94.9416353,73.8658191 C95.1500903,73.5311941 95.3228858,73.1444611 95.4600272,72.7056086 C95.5971687,72.2667561 95.7068801,71.8141962 95.789165,71.3479155 C95.8714498,70.8816347 95.9290484,70.4153609 95.9619623,69.9490801 C95.9948762,69.4827993 96.0113329,69.0521818 96.0113329,68.6572145 C96.0113329,68.3171038 95.9948762,67.9193997 95.9619623,67.4640902 C95.9290484,67.0087808 95.8714498,66.5397642 95.789165,66.0570264 C95.7068801,65.5742887 95.5971687,65.0970437 95.4600272,64.6252773 C95.3228858,64.1535109 95.1500903,63.7338644 94.9416353,63.3663255 C94.7331804,62.9987865 94.4890723,62.7025655 94.2093039,62.4776536 C93.9295354,62.2527417 93.6031437,62.1402874 93.2301191,62.1402874 C92.8570945,62.1402874 92.5252173,62.2445133 92.2344775,62.4529683 C91.9437377,62.6614232 91.6914013,62.9384447 91.4774607,63.284041 C91.2635201,63.6296374 91.0852389,64.0245987 90.9426119,64.4689369 C90.7999848,64.913275 90.6875306,65.376806 90.6052457,65.8595438 C90.5229609,66.3422815 90.4626195,66.8250121 90.42422,67.3077498 C90.3858204,67.7904876 90.3666209,68.2403046 90.3666209,68.6572145 Z" id="30" fill="#FFE093"></path>
                <path d="M67.9756553,95.1111111 L67.9756553,86.3373963 L71.1617085,86.3373963 C71.8777695,86.3373963 72.5053192,86.4530505 73.0443763,86.6843623 C73.5834335,86.9156742 74.0349877,87.2284433 74.3990524,87.6226792 C74.7631171,88.016915 75.0356587,88.4795317 75.2166854,89.0105433 C75.397712,89.5415548 75.488224,90.1087631 75.488224,90.7121853 C75.488224,91.3799726 75.3866494,91.9833857 75.1834973,92.5224429 C74.9803452,93.0615 74.6897012,93.5231111 74.3115566,93.9072899 C73.933412,94.2914687 73.4788408,94.5881468 72.9478293,94.7973331 C72.4168177,95.0065195 71.8214501,95.1111111 71.1617085,95.1111111 L67.9756553,95.1111111 Z M69.6772973,93.6146316 L71.1617085,93.6146316 C71.5800812,93.6146316 71.952186,93.5402106 72.278034,93.3913665 C72.603882,93.2425223 72.8764236,93.0383675 73.095667,92.778896 C73.3149104,92.5194245 73.4818547,92.2126894 73.5965049,91.8586818 C73.7111551,91.5046741 73.7684793,91.1225124 73.7684793,90.7121853 C73.7684793,90.2938126 73.7111551,89.9066225 73.5965049,89.5506034 C73.4818547,89.1945843 73.312899,88.888855 73.0896328,88.6334063 C72.8663666,88.3779575 72.5918136,88.1808426 72.2659656,88.0420555 C71.9401176,87.9032684 71.5720356,87.8338759 71.1617085,87.8338759 L69.6772973,87.8338759 L69.6772973,93.6146316 Z M75.9528567,95.1111111 L79.4164828,86.3373963 L80.7983127,86.3373963 L84.2438362,95.1111111 L82.4396129,95.1111111 L81.6370654,92.9267337 L78.5596276,92.9267337 L77.7570801,95.1111111 L75.9528567,95.1111111 Z M78.8432346,91.7259295 L81.3293216,91.7259295 L80.1043807,88.1778248 L78.8432346,91.7259295 Z M84.2196994,86.3373963 L86.0721963,86.3373963 L88.2324369,90.5613305 L90.4349169,86.3373963 L92.2753454,86.3373963 L89.0892922,92.0457417 L89.0892922,95.1111111 L87.3936843,95.1111111 L87.3936843,92.0216049 L84.2196994,86.3373963 Z M92.5046447,94.0732301 L93.2589187,92.6008873 C93.3313293,92.673298 93.4650859,92.7698441 93.6601924,92.8905285 C93.8552989,93.011213 94.0845959,93.1308899 94.3480903,93.249563 C94.6115846,93.368236 94.90424,93.4688048 95.2260652,93.5512725 C95.5478903,93.6337402 95.8777562,93.6749735 96.2156726,93.6749735 C97.1529884,93.6749735 97.6216393,93.3752783 97.6216393,92.7758789 C97.6216393,92.578761 97.5683378,92.4138281 97.4617332,92.2810752 C97.3551286,92.1483223 97.202264,92.0326681 97.0031346,91.9341092 C96.8040053,91.8355502 96.5646514,91.7450382 96.2850658,91.6625705 C96.0054802,91.5801028 95.6927111,91.4946193 95.346749,91.4061174 C94.9283763,91.2894558 94.564317,91.162739 94.2545603,91.0259633 C93.9448036,90.8891876 93.6873473,90.7302888 93.4821838,90.5492622 C93.2770202,90.3682355 93.1221442,90.1540238 93.017551,89.9066207 C92.9129578,89.6592176 92.860662,89.3665623 92.860662,89.0286458 C92.860662,88.5821134 92.9431285,88.1868778 93.1080639,87.8429272 C93.2729993,87.4989765 93.5022963,87.2113496 93.7959617,86.9800377 C94.0896272,86.7487259 94.4295499,86.5737361 94.8157401,86.4550631 C95.2019303,86.33639 95.6182854,86.2770544 96.0648178,86.2770544 C96.6843313,86.2770544 97.253551,86.3736005 97.7724941,86.5666956 C98.2914372,86.7597907 98.743997,86.9870763 99.1301872,87.2485593 L98.3759133,88.6364234 C98.3195939,88.580104 98.2150023,88.5016603 98.0621353,88.4010899 C97.9092683,88.3005195 97.723216,88.2029677 97.5039726,88.1084316 C97.2847292,88.0138954 97.0473867,87.9334404 96.7919379,87.8670639 C96.5364892,87.8006875 96.2780272,87.7674998 96.0165443,87.7674998 C95.545875,87.7674998 95.1948897,87.8549947 94.9635778,88.0299871 C94.732266,88.2049795 94.6166118,88.4473505 94.6166118,88.7571072 C94.6166118,88.9381339 94.6598564,89.0889871 94.7463469,89.2096716 C94.8328374,89.330356 94.9585485,89.4359533 95.1234839,89.5264667 C95.2884193,89.61698 95.4965968,89.6994464 95.7480228,89.7738685 C95.9994487,89.8482906 96.2900927,89.9257286 96.6199635,90.0061849 C97.0463818,90.1228465 97.4355833,90.2465462 97.7875796,90.3772877 C98.1395759,90.5080292 98.436254,90.6729621 98.6776229,90.8720914 C98.9189917,91.0712207 99.1060498,91.3085632 99.2388027,91.584126 C99.3715556,91.8596888 99.437931,92.1986059 99.437931,92.6008873 C99.437931,93.0715567 99.3494304,93.4738321 99.1724266,93.8077257 C98.9954227,94.1416193 98.7590859,94.4111438 98.463409,94.6163074 C98.1677322,94.8214709 97.8217753,94.9713185 97.4255281,95.0658547 C97.0292808,95.1603908 96.6159428,95.2076582 96.1855017,95.2076582 C95.5257601,95.2076582 94.8750796,95.1091007 94.2334406,94.9119828 C93.5918017,94.7148649 93.0155422,94.4352834 92.5046447,94.0732301 Z" id="DAYS" fill="#FFE093"></path>
                <path d="M42.0866035,131.061728 L42.0866035,124.680845 L43.9999909,124.680845 L45.3735923,127.682581 L46.7603593,124.680845 L48.6649696,124.680845 L48.6649696,131.061728 L46.9139569,131.061728 L46.9139569,127.700135 L45.8431622,130.065538 L44.908411,130.065538 L43.8376163,127.700135 L43.8376163,131.061728 L42.0866035,131.061728 Z M51.8578052,127.86251 C51.8578052,127.444137 51.9389917,127.039667 52.1013671,126.649089 C52.2637425,126.25851 52.4897482,125.915479 52.7793908,125.619985 C53.0690335,125.324491 53.4135275,125.088245 53.8128833,124.911241 C54.2122391,124.734237 54.647428,124.645737 55.118463,124.645737 C55.6041264,124.645737 56.0451666,124.738626 56.4415967,124.924407 C56.8380268,125.110188 57.1766695,125.355941 57.4575351,125.661675 C57.7384007,125.967409 57.9556295,126.314829 58.1092278,126.703945 C58.2628262,127.093061 58.3396243,127.490948 58.3396243,127.897618 C58.3396243,128.31599 58.2584378,128.718997 58.0960623,129.10665 C57.9336869,129.494303 57.7084127,129.835872 57.4202329,130.131366 C57.132053,130.42686 56.7890218,130.664568 56.3911289,130.844497 C55.9932359,131.024427 55.5573157,131.11439 55.083355,131.11439 C54.5976915,131.11439 54.1573828,131.021501 53.7624155,130.83572 C53.3674483,130.64994 53.0295369,130.405649 52.7486713,130.10284 C52.4678057,129.800032 52.2491142,129.454075 52.0925901,129.064959 C51.936066,128.675844 51.8578052,128.275031 51.8578052,127.86251 Z M53.6395374,127.880064 C53.6395374,128.096564 53.6695253,128.305016 53.7295018,128.505425 C53.7894783,128.705835 53.8787103,128.883567 53.9972004,129.038628 C54.1156906,129.19369 54.2663611,129.319492 54.4492163,129.41604 C54.6320715,129.512587 54.8493002,129.56086 55.100909,129.56086 C55.3525177,129.56086 55.5712093,129.511124 55.7569902,129.411651 C55.9427711,129.312178 56.0941729,129.18345 56.2112003,129.025463 C56.3282276,128.867476 56.4152654,128.686818 56.4723162,128.483483 C56.529367,128.280148 56.557892,128.073159 56.557892,127.86251 C56.557892,127.646009 56.5279042,127.437557 56.4679277,127.237148 C56.4079512,127.036739 56.3165249,126.860469 56.1936462,126.708333 C56.0707675,126.556198 55.9179029,126.433321 55.7350477,126.339699 C55.5521925,126.246077 55.3378894,126.199267 55.092132,126.199267 C54.8405232,126.199267 54.6232945,126.24754 54.4404393,126.344088 C54.2575841,126.440635 54.1061822,126.5679 53.9862292,126.725887 C53.8662762,126.883874 53.778507,127.06307 53.722919,127.263479 C53.667331,127.463888 53.6395374,127.669414 53.6395374,127.880064 Z M61.5324598,131.061728 L61.5324598,124.680845 L62.8972843,124.680845 L65.4601701,127.923949 L65.4601701,124.680845 L67.2111828,124.680845 L67.2111828,131.061728 L65.8200273,131.061728 L63.2834725,127.923949 L63.2834725,131.061728 L61.5324598,131.061728 Z M70.7594871,131.061728 L70.7594871,124.680845 L75.2269832,124.680845 L75.2269832,126.208044 L72.5104998,126.208044 L72.5104998,127.107687 L74.832018,127.107687 L74.832018,128.525174 L72.5104998,128.525174 L72.5104998,129.534529 L75.3059763,129.534529 L75.3059763,131.061728 L70.7594871,131.061728 Z M77.9721915,124.680845 L79.8680248,124.680845 L81.0090356,127.441213 L82.1763774,124.680845 L84.0809878,124.680845 L81.8823477,128.950858 L81.8823477,131.061728 L80.1357235,131.061728 L80.1357235,128.933304 L77.9721915,124.680845 Z M91.4760146,131.061728 L91.4760146,124.680845 L95.1799112,124.680845 C95.4022631,124.680845 95.6026694,124.728387 95.7811361,124.823471 C95.9596028,124.918556 96.111736,125.042896 96.2375404,125.196494 C96.3633448,125.350092 96.4606223,125.524168 96.5293759,125.718726 C96.5981294,125.913284 96.6325057,126.112959 96.6325057,126.317757 C96.6325057,126.616176 96.5564391,126.901426 96.4043035,127.173515 C96.252168,127.445603 96.0239681,127.651861 95.719697,127.792294 C96.0854075,127.900544 96.3743144,128.087053 96.5864264,128.351828 C96.7985384,128.616602 96.9045929,128.974262 96.9045929,129.424817 C96.9045929,129.711534 96.8446173,129.95875 96.7246642,130.166474 C96.6047112,130.374197 96.440144,130.543884 96.2309577,130.67554 C96.0217713,130.807196 95.7774804,130.904473 95.4980776,130.967376 C95.2186749,131.030278 94.9239167,131.061728 94.6137943,131.061728 L91.4760146,131.061728 Z M93.2270273,129.587191 L94.6137943,129.587191 C94.7571527,129.587191 94.8778354,129.541844 94.9758458,129.451148 C95.0738562,129.360452 95.1228606,129.231723 95.1228606,129.064959 C95.1228606,128.909898 95.0811703,128.779707 94.9977883,128.674383 C94.9144063,128.569058 94.8068891,128.516397 94.6752333,128.516397 L93.2270273,128.516397 L93.2270273,129.587191 Z M93.2270273,127.151572 L94.4250886,127.151572 C94.5450416,127.151572 94.6540217,127.118659 94.7520321,127.052831 C94.8500425,126.987003 94.899047,126.854618 94.899047,126.655671 C94.899047,126.483056 94.8573566,126.359448 94.7739746,126.284843 C94.6905927,126.210238 94.5918523,126.172936 94.4777507,126.172936 L93.2270273,126.172936 L93.2270273,127.151572 Z M99.562031,131.061728 L101.782614,124.680845 L103.380029,124.680845 L105.591834,131.061728 L103.814491,131.061728 L103.428302,129.811005 L101.725563,129.811005 L101.348152,131.061728 L99.562031,131.061728 Z M101.988873,128.643663 L103.147438,128.643663 L102.581321,126.668837 L101.988873,128.643663 Z M108.222941,127.818625 C108.222941,127.429509 108.296082,127.04625 108.442367,126.668837 C108.588651,126.291424 108.802954,125.952781 109.085282,125.652898 C109.367611,125.353016 109.709179,125.110188 110.109998,124.924407 C110.510816,124.738626 110.968679,124.645737 111.483599,124.645737 C112.100918,124.645737 112.63631,124.773002 113.089791,125.027537 C113.543272,125.282071 113.879721,125.61852 114.099147,126.036892 L112.760654,126.989198 C112.70214,126.834136 112.623148,126.705408 112.523674,126.603009 C112.424201,126.50061 112.31449,126.419424 112.194537,126.359447 C112.074584,126.299471 111.950244,126.25778 111.821514,126.234375 C111.692784,126.21097 111.568444,126.199267 111.448491,126.199267 C111.196882,126.199267 110.979654,126.249003 110.796798,126.348476 C110.613943,126.447949 110.464004,126.576677 110.346977,126.734664 C110.22995,126.892651 110.143643,127.071847 110.088055,127.272256 C110.032467,127.472665 110.004674,127.67234 110.004674,127.871287 C110.004674,128.093639 110.037587,128.306479 110.103415,128.509814 C110.169243,128.713149 110.265058,128.892344 110.390862,129.047405 C110.516666,129.202467 110.670994,129.326806 110.853849,129.420428 C111.036704,129.51405 111.240768,129.56086 111.466045,129.56086 C111.585998,129.56086 111.708875,129.547695 111.834679,129.521364 C111.960484,129.495033 112.081898,129.450417 112.198925,129.387514 C112.315953,129.324612 112.421276,129.243426 112.514897,129.143953 C112.608519,129.044479 112.68166,128.923065 112.734323,128.779707 L114.164975,129.631076 C114.068427,129.865131 113.922877,130.075046 113.728319,130.260827 C113.533761,130.446607 113.312143,130.602398 113.06346,130.728202 C112.814777,130.854007 112.547813,130.949821 112.262559,131.015649 C111.977304,131.081477 111.7001,131.11439 111.430937,131.11439 C110.956976,131.11439 110.523982,131.020039 110.13194,130.831332 C109.739899,130.642625 109.401987,130.392483 109.118196,130.080898 C108.834405,129.769313 108.61425,129.416042 108.457726,129.021074 C108.301202,128.626107 108.222941,128.225295 108.222941,127.818625 Z M117.234932,131.061728 L117.234932,124.680845 L118.985945,124.680845 L118.985945,127.107687 L120.930052,124.680845 L122.904878,124.680845 L120.587748,127.53776 L123.067253,131.061728 L121.05293,131.061728 L119.473069,128.713879 L118.985945,129.218557 L118.985945,131.061728 L117.234932,131.061728 Z" id="MONEY-BACK" fill="#FFFFFF"></path>
                <path d="M26.9034165,117.551918 L141.096583,117.551918 C141.717052,117.551918 142.22004,117.048929 142.22004,116.428461 C142.22004,115.807993 141.717052,115.305004 141.096583,115.305004 L26.9034165,115.305004 C26.2829485,115.305004 25.7799597,115.807993 25.7799597,116.428461 C25.7799597,117.048929 26.2829485,117.551918 26.9034165,117.551918 Z" id="Path-2" fill="#FFFFFF" fill-rule="nonzero" opacity="0.300000012"></path>
                <path d="M66.2244042,142.267967 L101.775596,142.267967 C102.396064,142.267967 102.899053,141.764978 102.899053,141.14451 C102.899053,140.524042 102.396064,140.021054 101.775596,140.021054 L66.2244042,140.021054 C65.6039361,140.021054 65.1009474,140.524042 65.1009474,141.14451 C65.1009474,141.764978 65.6039361,142.267967 66.2244042,142.267967 Z" id="Path-2-Copy" fill="#FFFFFF" fill-rule="nonzero" opacity="0.300000012"></path>
                <path d="M77.4589721,146.761794 L90.5410279,146.761794 C91.161496,146.761794 91.6644847,146.258806 91.6644847,145.638337 C91.6644847,145.017869 91.161496,144.514881 90.5410279,144.514881 L77.4589721,144.514881 C76.838504,144.514881 76.3355153,145.017869 76.3355153,145.638337 C76.3355153,146.258806 76.838504,146.761794 77.4589721,146.761794 Z" id="Path-2-Copy-2" fill="#FFFFFF" fill-rule="nonzero" opacity="0.300000012"></path>
                <ellipse id="Oval" fill="#FFFFFF" opacity="0.300000012" cx="23.8950617" cy="97.9197531" rx="3.93209877" ry="3.93209877"></ellipse>
                <ellipse id="Oval-Copy" fill="#FFFFFF" opacity="0.300000012" cx="141.858025" cy="97.9197531" rx="3.93209877" ry="3.93209877"></ellipse>
            </g>
        </g>
    </g>
</svg>